G04 ========================BEGIN FILE IDENTIFICATION RECORD===============*
G04 File Format : GERBER RS274X*
G04 File Origin : Ansoft Designer*
G04 =====THIS FILE CONTAINS GERBER DATA FOR LAYERS  Signal2*
G04 Design Name C:/Users/Damiano/Desktop/HFSS simulations/projects/Alford 2.7 GHz/layouts/V1/EMDesign1*
%FSLAX55Y55*MOMM*%
G75*
%LPD*%G36*
G01X-903725Y-175000D02*
G01X-903725Y175000D01*
G01X-953725Y225000D01*
G01X-2500000Y225000D01*
G01X-2500000Y1905000D01*
G01X-2600000Y1905000D01*
G01X-2600000Y555000D01*
G01X-2700000Y555000D01*
G01X-2700000Y1905000D01*
G01X-2800000Y1905000D01*
G01X-2800000Y-175000D01*
G01X-2750000Y-225000D01*
G01X-953725Y-225000D01*
G01X-903725Y-175000D01*
G37*
G36*
G01X793725Y-225000D02*
G01X793725Y225000D01*
G01X769527Y297412D01*
G01X738737Y367277D01*
G01X701621Y433996D01*
G01X658496Y496999D01*
G01X609732Y555745D01*
G01X555745Y609732D01*
G01X496999Y658496D01*
G01X433996Y701621D01*
G01X367277Y738737D01*
G01X297412Y769527D01*
G01X225000Y793725D01*
G01X-225000Y793725D01*
G01X-297412Y769527D01*
G01X-367277Y738737D01*
G01X-433996Y701621D01*
G01X-496999Y658496D01*
G01X-555745Y609732D01*
G01X-609732Y555745D01*
G01X-658496Y496999D01*
G01X-701621Y433996D01*
G01X-738737Y367277D01*
G01X-769527Y297412D01*
G01X-793725Y225000D01*
G01X-793725Y0D01*
G01X-150000Y0D01*
G01X-146239Y33378D01*
G01X-135145Y65083D01*
G01X-117275Y93524D01*
G01X-93524Y117275D01*
G01X-65083Y135145D01*
G01X-33378Y146239D01*
G01X0Y150000D01*
G01X33378Y146239D01*
G01X65083Y135145D01*
G01X93524Y117275D01*
G01X117275Y93524D01*
G01X135145Y65083D01*
G01X146239Y33378D01*
G01X150000Y0D01*
G01X146239Y-33378D01*
G01X135145Y-65083D01*
G01X117275Y-93524D01*
G01X93524Y-117275D01*
G01X65083Y-135145D01*
G01X33378Y-146239D01*
G01X0Y-150000D01*
G01X-33378Y-146239D01*
G01X-65083Y-135145D01*
G01X-93524Y-117275D01*
G01X-117275Y-93524D01*
G01X-135145Y-65083D01*
G01X-146239Y-33378D01*
G01X-150000Y0D01*
G01X-793725Y0D01*
G01X-793725Y-225000D01*
G01X-769527Y-297412D01*
G01X-738737Y-367277D01*
G01X-701621Y-433996D01*
G01X-658496Y-496999D01*
G01X-609732Y-555745D01*
G01X-555745Y-609732D01*
G01X-496999Y-658496D01*
G01X-433996Y-701621D01*
G01X-367277Y-738737D01*
G01X-297412Y-769527D01*
G01X-225000Y-793725D01*
G01X225000Y-793725D01*
G01X297412Y-769527D01*
G01X367277Y-738737D01*
G01X433996Y-701621D01*
G01X496999Y-658496D01*
G01X555745Y-609732D01*
G01X609732Y-555745D01*
G01X658496Y-496999D01*
G01X701621Y-433996D01*
G01X738737Y-367277D01*
G01X769527Y-297412D01*
G01X793725Y-225000D01*
G37*
G36*
G01X903725Y175000D02*
G01X903725Y-175000D01*
G01X953725Y-225000D01*
G01X2500000Y-225000D01*
G01X2500000Y-1905000D01*
G01X2600000Y-1905000D01*
G01X2600000Y-555000D01*
G01X2700000Y-555000D01*
G01X2700000Y-1905000D01*
G01X2800000Y-1905000D01*
G01X2800000Y175000D01*
G01X2750000Y225000D01*
G01X953725Y225000D01*
G01X903725Y175000D01*
G37*
G36*
G01X-175000Y903725D02*
G01X175000Y903725D01*
G01X225000Y953725D01*
G01X225000Y2500000D01*
G01X1905000Y2500000D01*
G01X1905000Y2600000D01*
G01X555000Y2600000D01*
G01X555000Y2700000D01*
G01X1905000Y2700000D01*
G01X1905000Y2800000D01*
G01X-175000Y2800000D01*
G01X-225000Y2750000D01*
G01X-225000Y953725D01*
G01X-175000Y903725D01*
G37*
G36*
G01X175000Y-903725D02*
G01X-175000Y-903725D01*
G01X-225000Y-953725D01*
G01X-225000Y-2500000D01*
G01X-1905000Y-2500000D01*
G01X-1905000Y-2600000D01*
G01X-555000Y-2600000D01*
G01X-555000Y-2700000D01*
G01X-1905000Y-2700000D01*
G01X-1905000Y-2800000D01*
G01X175000Y-2800000D01*
G01X225000Y-2750000D01*
G01X225000Y-953725D01*
G01X175000Y-903725D01*
G37*
G36*
G01X1038725Y465000D02*
G01X918725Y465000D01*
G01X918725Y345000D01*
G01X953725Y345000D01*
G01X953725Y295000D01*
G01X1003725Y295000D01*
G01X1003725Y345000D01*
G01X1038725Y345000D01*
G01X1038725Y465000D01*
G37*
G36*
G01X764379Y-679237D02*
G01X679526Y-594384D01*
G01X594673Y-679237D01*
G01X679526Y-764089D01*
G01X764379Y-679237D01*
G37*
G36*
G01X-764379Y679237D02*
G01X-679526Y594384D01*
G01X-594673Y679237D01*
G01X-679526Y764089D01*
G01X-764379Y679237D01*
G37*
G36*
G01X755000Y680147D02*
G01X839853Y765000D01*
G01X755000Y849853D01*
G01X670147Y765000D01*
G01X755000Y680147D01*
G37*
G36*
G01X-755000Y-680147D02*
G01X-839853Y-765000D01*
G01X-755000Y-849853D01*
G01X-670147Y-765000D01*
G01X-755000Y-680147D01*
G37*
G36*
G01X465000Y1038725D02*
G01X345000Y1038725D01*
G01X345000Y1003725D01*
G01X295000Y1003725D01*
G01X295000Y953725D01*
G01X345000Y953725D01*
G01X345000Y918725D01*
G01X465000Y918725D01*
G01X465000Y1038725D01*
G37*
G36*
G01X-465000Y-1038725D02*
G01X-345000Y-1038725D01*
G01X-345000Y-1003725D01*
G01X-295000Y-1003725D01*
G01X-295000Y-953725D01*
G01X-345000Y-953725D01*
G01X-345000Y-918725D01*
G01X-465000Y-918725D01*
G01X-465000Y-1038725D01*
G37*
G36*
G01X-1038725Y-465000D02*
G01X-918725Y-465000D01*
G01X-918725Y-345000D01*
G01X-953725Y-345000D01*
G01X-953725Y-295000D01*
G01X-1003725Y-295000D01*
G01X-1003725Y-345000D01*
G01X-1038725Y-345000D01*
G01X-1038725Y-465000D01*
G37*
M02*
