G04 ========================BEGIN FILE IDENTIFICATION RECORD===============*
G04 File Format : GERBER RS274X*
G04 File Origin : Ansoft Designer*
G04 =====THIS FILE CONTAINS GERBER DATA FOR LAYERS  Signal2*
G04 Design Name C:/Users/Damiano/Desktop/HFSS simulations/projects/UWB Alford 2_4GHz model/layouts/design with pin_diodes/EMDesign1*
%FSLAX55Y55*MOMM*%
G75*
%LPD*%G36*
G01X192500Y-994098D02*
G01X-192500Y-994098D01*
G01X-247500Y-1049098D01*
G01X-247500Y-3058000D01*
G01X-2403500Y-3058000D01*
G01X-2403500Y-3168000D01*
G01X-918500Y-3168000D01*
G01X-918500Y-3278000D01*
G01X-2403500Y-3278000D01*
G01X-2403500Y-3388000D01*
G01X192500Y-3388000D01*
G01X247500Y-3333000D01*
G01X247500Y-1049098D01*
G01X192500Y-994098D01*
G37*
G36*
G01X-192500Y994098D02*
G01X192500Y994098D01*
G01X247500Y1049098D01*
G01X247500Y3058000D01*
G01X2403500Y3058000D01*
G01X2403500Y3168000D01*
G01X918500Y3168000D01*
G01X918500Y3278000D01*
G01X2403500Y3278000D01*
G01X2403500Y3388000D01*
G01X-192500Y3388000D01*
G01X-247500Y3333000D01*
G01X-247500Y1049098D01*
G01X-192500Y994098D01*
G37*
G36*
G01X873098Y-247500D02*
G01X873098Y247500D01*
G01X846479Y327153D01*
G01X812611Y404005D01*
G01X771783Y477396D01*
G01X724346Y546699D01*
G01X670705Y611319D01*
G01X611319Y670705D01*
G01X546699Y724346D01*
G01X477396Y771783D01*
G01X404005Y812611D01*
G01X327153Y846479D01*
G01X247500Y873098D01*
G01X-247500Y873098D01*
G01X-327153Y846479D01*
G01X-404005Y812611D01*
G01X-477396Y771783D01*
G01X-546699Y724346D01*
G01X-611319Y670705D01*
G01X-670705Y611319D01*
G01X-724346Y546699D01*
G01X-771783Y477396D01*
G01X-812611Y404005D01*
G01X-846479Y327153D01*
G01X-873098Y247500D01*
G01X-873098Y0D01*
G01X-150000Y0D01*
G01X-146239Y33378D01*
G01X-135145Y65083D01*
G01X-117275Y93524D01*
G01X-93524Y117275D01*
G01X-65083Y135145D01*
G01X-33378Y146239D01*
G01X0Y150000D01*
G01X33378Y146239D01*
G01X65083Y135145D01*
G01X93524Y117275D01*
G01X117275Y93524D01*
G01X135145Y65083D01*
G01X146239Y33378D01*
G01X150000Y0D01*
G01X146239Y-33378D01*
G01X135145Y-65083D01*
G01X117275Y-93524D01*
G01X93524Y-117275D01*
G01X65083Y-135145D01*
G01X33378Y-146239D01*
G01X0Y-150000D01*
G01X-33378Y-146239D01*
G01X-65083Y-135145D01*
G01X-93524Y-117275D01*
G01X-117275Y-93524D01*
G01X-135145Y-65083D01*
G01X-146239Y-33378D01*
G01X-150000Y0D01*
G01X-873098Y0D01*
G01X-873098Y-247500D01*
G01X-846479Y-327153D01*
G01X-812611Y-404005D01*
G01X-771783Y-477396D01*
G01X-724346Y-546699D01*
G01X-670705Y-611319D01*
G01X-611319Y-670705D01*
G01X-546699Y-724346D01*
G01X-477396Y-771783D01*
G01X-404005Y-812611D01*
G01X-327153Y-846479D01*
G01X-247500Y-873098D01*
G01X247500Y-873098D01*
G01X327153Y-846479D01*
G01X404005Y-812611D01*
G01X477396Y-771783D01*
G01X546699Y-724346D01*
G01X611319Y-670705D01*
G01X670705Y-611319D01*
G01X724346Y-546699D01*
G01X771783Y-477396D01*
G01X812611Y-404005D01*
G01X846479Y-327153D01*
G01X873098Y-247500D01*
G37*
G36*
G01X-994098Y-192500D02*
G01X-994098Y192500D01*
G01X-1049098Y247500D01*
G01X-3058000Y247500D01*
G01X-3058000Y2403500D01*
G01X-3168000Y2403500D01*
G01X-3168000Y918500D01*
G01X-3278000Y918500D01*
G01X-3278000Y2403500D01*
G01X-3388000Y2403500D01*
G01X-3388000Y-192500D01*
G01X-3333000Y-247500D01*
G01X-1049098Y-247500D01*
G01X-994098Y-192500D01*
G37*
G36*
G01X994098Y192500D02*
G01X994098Y-192500D01*
G01X1049098Y-247500D01*
G01X3058000Y-247500D01*
G01X3058000Y-2403500D01*
G01X3168000Y-2403500D01*
G01X3168000Y-918500D01*
G01X3278000Y-918500D01*
G01X3278000Y-2403500D01*
G01X3388000Y-2403500D01*
G01X3388000Y192500D01*
G01X3333000Y247500D01*
G01X1049098Y247500D01*
G01X994098Y192500D01*
G37*
G36*
G01X-1087885Y596287D02*
G01X-1087885Y457500D01*
G01X-1114098Y457500D01*
G01X-1114098Y377500D01*
G01X-1099098Y377500D01*
G01X-1099098Y327500D01*
G01X-1049098Y327500D01*
G01X-1049098Y377500D01*
G01X-1034098Y377500D01*
G01X-1034098Y457500D01*
G01X-1057885Y457500D01*
G01X-1057885Y608713D01*
G01X-1218157Y768986D01*
G01X-1169741Y817401D01*
G01X-1166206Y813866D01*
G01X-1024784Y955287D01*
G01X-1053069Y983571D01*
G01X-1194490Y842150D01*
G01X-1190955Y838614D01*
G01X-1260583Y768986D01*
G01X-1087885Y596287D01*
G37*
G36*
G01X566239Y946188D02*
G01X247500Y946188D01*
G01X247500Y948598D01*
G01X-593831Y948598D01*
G01X-741942Y1096708D01*
G01X-883363Y955287D01*
G01X-855079Y927003D01*
G01X-734871Y1047211D01*
G01X-606258Y918598D01*
G01X551402Y918598D01*
G01X1034098Y435902D01*
G01X1034098Y377500D01*
G01X1049098Y377500D01*
G01X1049098Y327500D01*
G01X1099098Y327500D01*
G01X1099098Y377500D01*
G01X1114098Y377500D01*
G01X1114098Y457500D01*
G01X1054926Y457500D01*
G01X566239Y946188D01*
G37*
G36*
G01X-954074Y1025998D02*
G01X-812652Y1167419D01*
G01X-816188Y1170955D01*
G01X-767772Y1219370D01*
G01X-607500Y1059098D01*
G01X-457500Y1059098D01*
G01X-457500Y1034098D01*
G01X-377500Y1034098D01*
G01X-377500Y1049098D01*
G01X-327500Y1049098D01*
G01X-327500Y1099098D01*
G01X-377500Y1099098D01*
G01X-377500Y1114098D01*
G01X-457500Y1114098D01*
G01X-457500Y1089098D01*
G01X-595074Y1089098D01*
G01X-767772Y1261797D01*
G01X-837401Y1192168D01*
G01X-840937Y1195703D01*
G01X-982358Y1054282D01*
G01X-954074Y1025998D01*
G37*
G36*
G01X-1047211Y734871D02*
G01X-925790Y856292D01*
G01X-954074Y884576D01*
G01X-1096708Y741942D01*
G01X-948598Y593831D01*
G01X-948598Y-247500D01*
G01X-946188Y-247500D01*
G01X-946188Y-566239D01*
G01X-457500Y-1054926D01*
G01X-457500Y-1114098D01*
G01X-377500Y-1114098D01*
G01X-377500Y-1099098D01*
G01X-327500Y-1099098D01*
G01X-327500Y-1049098D01*
G01X-377500Y-1049098D01*
G01X-377500Y-1034098D01*
G01X-435902Y-1034098D01*
G01X-918598Y-551402D01*
G01X-918598Y606258D01*
G01X-1047211Y734871D01*
G37*
G36*
G01X-1077818Y1100244D02*
G01X-911647Y1266414D01*
G01X-939932Y1294698D01*
G01X-1293485Y941145D01*
G01X-1265201Y912861D01*
G01X-1099031Y1079031D01*
G01X-851041Y831041D01*
G01X-865790Y816292D01*
G01X-816292Y766795D01*
G01X-809221Y773866D01*
G01X-752652Y717297D01*
G01X-717297Y752652D01*
G01X-773866Y809221D01*
G01X-766795Y816292D01*
G01X-816292Y865790D01*
G01X-829828Y852254D01*
G01X-1077818Y1100244D01*
G37*
M02*
