G04 ========================BEGIN FILE IDENTIFICATION RECORD===============*
G04 File Format : GERBER RS274X*
G04 File Origin : Ansoft Designer*
G04 =====THIS FILE CONTAINS GERBER DATA FOR LAYERS  Signal1*
G04 Design Name C:/Users/Damiano/Desktop/HFSS simulations/projects/UWB Alford 2_4GHz model/layouts/design with pin_diodes/EMDesign1*
%FSLAX55Y55*MOMM*%
%ADD10R, 2.200000X24.200000*%
%ADD11R, 24.200000X2.200000*%
G75*
%LPD*%G36*
G01X-3058000Y-247500D02*
G01X-393500Y-247500D01*
G01X-323500Y-177500D01*
G01X-323500Y177500D01*
G01X-393500Y247500D01*
G01X-3333000Y247500D01*
G01X-3388000Y192500D01*
G01X-3388000Y-2403500D01*
G01X-3278000Y-2403500D01*
G01X-3278000Y-918500D01*
G01X-3168000Y-918500D01*
G01X-3168000Y-2403500D01*
G01X-3058000Y-2403500D01*
G01X-3058000Y-247500D01*
G37*
G36*
G01X3058000Y247500D02*
G01X393500Y247500D01*
G01X323500Y177500D01*
G01X323500Y-177500D01*
G01X393500Y-247500D01*
G01X3333000Y-247500D01*
G01X3388000Y-192500D01*
G01X3388000Y2403500D01*
G01X3278000Y2403500D01*
G01X3278000Y918500D01*
G01X3168000Y918500D01*
G01X3168000Y2403500D01*
G01X3058000Y2403500D01*
G01X3058000Y247500D01*
G37*
G36*
G01X164926Y0D02*
G01X161039Y35735D01*
G01X149562Y69799D01*
G01X131030Y100600D01*
G01X106310Y126697D01*
G01X76558Y146869D01*
G01X43165Y160174D01*
G01X7692Y165990D01*
G01X-28201Y164043D01*
G01X-62837Y154427D01*
G01X-94595Y137589D01*
G01X-121992Y114318D01*
G01X-143746Y85702D01*
G01X-158839Y53078D01*
G01X-166566Y17973D01*
G01X-166566Y-17973D01*
G01X-158839Y-53078D01*
G01X-143746Y-85702D01*
G01X-121992Y-114318D01*
G01X-94595Y-137589D01*
G01X-62837Y-154427D01*
G01X-28201Y-164043D01*
G01X7692Y-165990D01*
G01X43165Y-160174D01*
G01X76558Y-146869D01*
G01X106310Y-126697D01*
G01X131030Y-100600D01*
G01X149562Y-69799D01*
G01X161039Y-35735D01*
G01X164926Y0D01*
G37*
G36*
G01X247500Y-3058000D02*
G01X247500Y-393500D01*
G01X177500Y-323500D01*
G01X-177500Y-323500D01*
G01X-247500Y-393500D01*
G01X-247500Y-3333000D01*
G01X-192500Y-3388000D01*
G01X2403500Y-3388000D01*
G01X2403500Y-3278000D01*
G01X918500Y-3278000D01*
G01X918500Y-3168000D01*
G01X2403500Y-3168000D01*
G01X2403500Y-3058000D01*
G01X247500Y-3058000D01*
G37*
G36*
G01X-247500Y3058000D02*
G01X-247500Y393500D01*
G01X-177500Y323500D01*
G01X177500Y323500D01*
G01X247500Y393500D01*
G01X247500Y3333000D01*
G01X192500Y3388000D01*
G01X-2403500Y3388000D01*
G01X-2403500Y3278000D01*
G01X-918500Y3278000D01*
G01X-918500Y3168000D01*
G01X-2403500Y3168000D01*
G01X-2403500Y3058000D01*
G01X-247500Y3058000D01*
G37*
G54D10*
X4268000Y0D03*
G54D11*
X0Y4268000D03*
G54D10*
X-4268000Y0D03*
G54D11*
X0Y-4268000D03*
G36*
G01X-182322Y217678D02*
G01X-773866Y809221D01*
G01X-766795Y816292D01*
G01X-816292Y865790D01*
G01X-865790Y816292D01*
G01X-816292Y766795D01*
G01X-809221Y773866D01*
G01X-217678Y182322D01*
G01X-182322Y217678D01*
G37*
G36*
G01X-377500Y-1034098D02*
G01X-457500Y-1034098D01*
G01X-457500Y-1114098D01*
G01X-377500Y-1114098D01*
G01X-377500Y-1099098D01*
G01X-327500Y-1099098D01*
G01X-327500Y-1049098D01*
G01X-377500Y-1049098D01*
G01X-377500Y-1034098D01*
G37*
G36*
G01X-1034098Y377500D02*
G01X-1034098Y457500D01*
G01X-1114098Y457500D01*
G01X-1114098Y377500D01*
G01X-1099098Y377500D01*
G01X-1099098Y327500D01*
G01X-1049098Y327500D01*
G01X-1049098Y377500D01*
G01X-1034098Y377500D01*
G37*
G36*
G01X1034098Y377500D02*
G01X1049098Y377500D01*
G01X1049098Y327500D01*
G01X1099098Y327500D01*
G01X1099098Y377500D01*
G01X1114098Y377500D01*
G01X1114098Y457500D01*
G01X1034098Y457500D01*
G01X1034098Y377500D01*
G37*
G36*
G01X-377500Y1034098D02*
G01X-377500Y1049098D01*
G01X-327500Y1049098D01*
G01X-327500Y1099098D01*
G01X-377500Y1099098D01*
G01X-377500Y1114098D01*
G01X-457500Y1114098D01*
G01X-457500Y1034098D01*
G01X-377500Y1034098D01*
G37*
M02*
