G04 EAGLE Gerber RS-274X export*
G75*
%MOMM*%
%FSLAX34Y34*%
%LPD*%
%INoutline_silk_bot*%
%IPPOS*%
%AMOC8*
5,1,8,0,0,1.08239X$1,22.5*%
G01*
%ADD10C,0.001000*%
%ADD11C,0.101600*%


D10*
X-175000Y350000D02*
X-350000Y210000D01*
X-350000Y-175000D01*
X-210000Y-350000D01*
X175000Y-350000D01*
X350000Y-210000D01*
X350000Y175000D01*
X210000Y350000D01*
X-175000Y350000D01*
D11*
X-55118Y-25908D02*
X-55118Y-37592D01*
X-55118Y-25908D02*
X-58364Y-25908D01*
X-58477Y-25910D01*
X-58590Y-25916D01*
X-58703Y-25926D01*
X-58816Y-25940D01*
X-58928Y-25957D01*
X-59039Y-25979D01*
X-59149Y-26004D01*
X-59259Y-26034D01*
X-59367Y-26067D01*
X-59474Y-26104D01*
X-59580Y-26144D01*
X-59684Y-26189D01*
X-59787Y-26237D01*
X-59888Y-26288D01*
X-59987Y-26343D01*
X-60084Y-26401D01*
X-60179Y-26463D01*
X-60272Y-26528D01*
X-60362Y-26596D01*
X-60450Y-26667D01*
X-60536Y-26742D01*
X-60619Y-26819D01*
X-60699Y-26899D01*
X-60776Y-26982D01*
X-60851Y-27068D01*
X-60922Y-27156D01*
X-60990Y-27246D01*
X-61055Y-27339D01*
X-61117Y-27434D01*
X-61175Y-27531D01*
X-61230Y-27630D01*
X-61281Y-27731D01*
X-61329Y-27834D01*
X-61374Y-27938D01*
X-61414Y-28044D01*
X-61451Y-28151D01*
X-61484Y-28259D01*
X-61514Y-28369D01*
X-61539Y-28479D01*
X-61561Y-28590D01*
X-61578Y-28702D01*
X-61592Y-28815D01*
X-61602Y-28928D01*
X-61608Y-29041D01*
X-61610Y-29154D01*
X-61608Y-29267D01*
X-61602Y-29380D01*
X-61592Y-29493D01*
X-61578Y-29606D01*
X-61561Y-29718D01*
X-61539Y-29829D01*
X-61514Y-29939D01*
X-61484Y-30049D01*
X-61451Y-30157D01*
X-61414Y-30264D01*
X-61374Y-30370D01*
X-61329Y-30474D01*
X-61281Y-30577D01*
X-61230Y-30678D01*
X-61175Y-30777D01*
X-61117Y-30874D01*
X-61055Y-30969D01*
X-60990Y-31062D01*
X-60922Y-31152D01*
X-60851Y-31240D01*
X-60776Y-31326D01*
X-60699Y-31409D01*
X-60619Y-31489D01*
X-60536Y-31566D01*
X-60450Y-31641D01*
X-60362Y-31712D01*
X-60272Y-31780D01*
X-60179Y-31845D01*
X-60084Y-31907D01*
X-59987Y-31965D01*
X-59888Y-32020D01*
X-59787Y-32071D01*
X-59684Y-32119D01*
X-59580Y-32164D01*
X-59474Y-32204D01*
X-59367Y-32241D01*
X-59259Y-32274D01*
X-59149Y-32304D01*
X-59039Y-32329D01*
X-58928Y-32351D01*
X-58816Y-32368D01*
X-58703Y-32382D01*
X-58590Y-32392D01*
X-58477Y-32398D01*
X-58364Y-32400D01*
X-58364Y-32399D02*
X-55118Y-32399D01*
X-65998Y-37592D02*
X-69892Y-37592D01*
X-69991Y-37590D01*
X-70091Y-37584D01*
X-70190Y-37575D01*
X-70288Y-37562D01*
X-70386Y-37545D01*
X-70484Y-37524D01*
X-70580Y-37499D01*
X-70675Y-37471D01*
X-70769Y-37439D01*
X-70862Y-37404D01*
X-70954Y-37365D01*
X-71044Y-37322D01*
X-71132Y-37277D01*
X-71219Y-37227D01*
X-71303Y-37175D01*
X-71386Y-37119D01*
X-71466Y-37061D01*
X-71544Y-36999D01*
X-71619Y-36934D01*
X-71692Y-36866D01*
X-71762Y-36796D01*
X-71830Y-36723D01*
X-71895Y-36648D01*
X-71957Y-36570D01*
X-72015Y-36490D01*
X-72071Y-36407D01*
X-72123Y-36323D01*
X-72173Y-36236D01*
X-72218Y-36148D01*
X-72261Y-36058D01*
X-72300Y-35966D01*
X-72335Y-35873D01*
X-72367Y-35779D01*
X-72395Y-35684D01*
X-72420Y-35588D01*
X-72441Y-35490D01*
X-72458Y-35392D01*
X-72471Y-35294D01*
X-72480Y-35195D01*
X-72486Y-35095D01*
X-72488Y-34996D01*
X-72489Y-34996D02*
X-72489Y-33697D01*
X-72488Y-33697D02*
X-72486Y-33598D01*
X-72480Y-33498D01*
X-72471Y-33399D01*
X-72458Y-33301D01*
X-72441Y-33203D01*
X-72420Y-33105D01*
X-72395Y-33009D01*
X-72367Y-32914D01*
X-72335Y-32820D01*
X-72300Y-32727D01*
X-72261Y-32635D01*
X-72218Y-32545D01*
X-72173Y-32457D01*
X-72123Y-32370D01*
X-72071Y-32286D01*
X-72015Y-32203D01*
X-71957Y-32123D01*
X-71895Y-32045D01*
X-71830Y-31970D01*
X-71762Y-31897D01*
X-71692Y-31827D01*
X-71619Y-31759D01*
X-71544Y-31694D01*
X-71466Y-31632D01*
X-71386Y-31574D01*
X-71303Y-31518D01*
X-71219Y-31466D01*
X-71132Y-31416D01*
X-71044Y-31371D01*
X-70954Y-31328D01*
X-70862Y-31289D01*
X-70769Y-31254D01*
X-70675Y-31222D01*
X-70580Y-31194D01*
X-70484Y-31169D01*
X-70386Y-31148D01*
X-70288Y-31131D01*
X-70190Y-31118D01*
X-70091Y-31109D01*
X-69991Y-31103D01*
X-69892Y-31101D01*
X-65998Y-31101D01*
X-65998Y-25908D01*
X-72489Y-25908D01*
X-32921Y-42418D02*
X-32921Y-54102D01*
X-32921Y-42418D02*
X-36167Y-42418D01*
X-36280Y-42420D01*
X-36393Y-42426D01*
X-36506Y-42436D01*
X-36619Y-42450D01*
X-36731Y-42467D01*
X-36842Y-42489D01*
X-36952Y-42514D01*
X-37062Y-42544D01*
X-37170Y-42577D01*
X-37277Y-42614D01*
X-37383Y-42654D01*
X-37487Y-42699D01*
X-37590Y-42747D01*
X-37691Y-42798D01*
X-37790Y-42853D01*
X-37887Y-42911D01*
X-37982Y-42973D01*
X-38075Y-43038D01*
X-38165Y-43106D01*
X-38253Y-43177D01*
X-38339Y-43252D01*
X-38422Y-43329D01*
X-38502Y-43409D01*
X-38579Y-43492D01*
X-38654Y-43578D01*
X-38725Y-43666D01*
X-38793Y-43756D01*
X-38858Y-43849D01*
X-38920Y-43944D01*
X-38978Y-44041D01*
X-39033Y-44140D01*
X-39084Y-44241D01*
X-39132Y-44344D01*
X-39177Y-44448D01*
X-39217Y-44554D01*
X-39254Y-44661D01*
X-39287Y-44769D01*
X-39317Y-44879D01*
X-39342Y-44989D01*
X-39364Y-45100D01*
X-39381Y-45212D01*
X-39395Y-45325D01*
X-39405Y-45438D01*
X-39411Y-45551D01*
X-39413Y-45664D01*
X-39411Y-45777D01*
X-39405Y-45890D01*
X-39395Y-46003D01*
X-39381Y-46116D01*
X-39364Y-46228D01*
X-39342Y-46339D01*
X-39317Y-46449D01*
X-39287Y-46559D01*
X-39254Y-46667D01*
X-39217Y-46774D01*
X-39177Y-46880D01*
X-39132Y-46984D01*
X-39084Y-47087D01*
X-39033Y-47188D01*
X-38978Y-47287D01*
X-38920Y-47384D01*
X-38858Y-47479D01*
X-38793Y-47572D01*
X-38725Y-47662D01*
X-38654Y-47750D01*
X-38579Y-47836D01*
X-38502Y-47919D01*
X-38422Y-47999D01*
X-38339Y-48076D01*
X-38253Y-48151D01*
X-38165Y-48222D01*
X-38075Y-48290D01*
X-37982Y-48355D01*
X-37887Y-48417D01*
X-37790Y-48475D01*
X-37691Y-48530D01*
X-37590Y-48581D01*
X-37487Y-48629D01*
X-37383Y-48674D01*
X-37277Y-48714D01*
X-37170Y-48751D01*
X-37062Y-48784D01*
X-36952Y-48814D01*
X-36842Y-48839D01*
X-36731Y-48861D01*
X-36619Y-48878D01*
X-36506Y-48892D01*
X-36393Y-48902D01*
X-36280Y-48908D01*
X-36167Y-48910D01*
X-36167Y-48909D02*
X-32921Y-48909D01*
X-43801Y-47611D02*
X-47696Y-47611D01*
X-47795Y-47613D01*
X-47895Y-47619D01*
X-47994Y-47628D01*
X-48092Y-47641D01*
X-48190Y-47658D01*
X-48288Y-47679D01*
X-48384Y-47704D01*
X-48479Y-47732D01*
X-48573Y-47764D01*
X-48666Y-47799D01*
X-48758Y-47838D01*
X-48848Y-47881D01*
X-48936Y-47926D01*
X-49023Y-47976D01*
X-49107Y-48028D01*
X-49190Y-48084D01*
X-49270Y-48142D01*
X-49348Y-48204D01*
X-49423Y-48269D01*
X-49496Y-48337D01*
X-49566Y-48407D01*
X-49634Y-48480D01*
X-49699Y-48555D01*
X-49761Y-48633D01*
X-49819Y-48713D01*
X-49875Y-48796D01*
X-49927Y-48880D01*
X-49977Y-48967D01*
X-50022Y-49055D01*
X-50065Y-49145D01*
X-50104Y-49237D01*
X-50139Y-49330D01*
X-50171Y-49424D01*
X-50199Y-49519D01*
X-50224Y-49615D01*
X-50245Y-49713D01*
X-50262Y-49811D01*
X-50275Y-49909D01*
X-50284Y-50008D01*
X-50290Y-50108D01*
X-50292Y-50207D01*
X-50292Y-50856D01*
X-50290Y-50969D01*
X-50284Y-51082D01*
X-50274Y-51195D01*
X-50260Y-51308D01*
X-50243Y-51420D01*
X-50221Y-51531D01*
X-50196Y-51641D01*
X-50166Y-51751D01*
X-50133Y-51859D01*
X-50096Y-51966D01*
X-50056Y-52072D01*
X-50011Y-52176D01*
X-49963Y-52279D01*
X-49912Y-52380D01*
X-49857Y-52479D01*
X-49799Y-52576D01*
X-49737Y-52671D01*
X-49672Y-52764D01*
X-49604Y-52854D01*
X-49533Y-52942D01*
X-49458Y-53028D01*
X-49381Y-53111D01*
X-49301Y-53191D01*
X-49218Y-53268D01*
X-49132Y-53343D01*
X-49044Y-53414D01*
X-48954Y-53482D01*
X-48861Y-53547D01*
X-48766Y-53609D01*
X-48669Y-53667D01*
X-48570Y-53722D01*
X-48469Y-53773D01*
X-48366Y-53821D01*
X-48262Y-53866D01*
X-48156Y-53906D01*
X-48049Y-53943D01*
X-47941Y-53976D01*
X-47831Y-54006D01*
X-47721Y-54031D01*
X-47610Y-54053D01*
X-47498Y-54070D01*
X-47385Y-54084D01*
X-47272Y-54094D01*
X-47159Y-54100D01*
X-47046Y-54102D01*
X-46933Y-54100D01*
X-46820Y-54094D01*
X-46707Y-54084D01*
X-46594Y-54070D01*
X-46482Y-54053D01*
X-46371Y-54031D01*
X-46261Y-54006D01*
X-46151Y-53976D01*
X-46043Y-53943D01*
X-45936Y-53906D01*
X-45830Y-53866D01*
X-45726Y-53821D01*
X-45623Y-53773D01*
X-45522Y-53722D01*
X-45423Y-53667D01*
X-45326Y-53609D01*
X-45231Y-53547D01*
X-45138Y-53482D01*
X-45048Y-53414D01*
X-44960Y-53343D01*
X-44874Y-53268D01*
X-44791Y-53191D01*
X-44711Y-53111D01*
X-44634Y-53028D01*
X-44559Y-52942D01*
X-44488Y-52854D01*
X-44420Y-52764D01*
X-44355Y-52671D01*
X-44293Y-52576D01*
X-44235Y-52479D01*
X-44180Y-52380D01*
X-44129Y-52279D01*
X-44081Y-52176D01*
X-44036Y-52072D01*
X-43996Y-51966D01*
X-43959Y-51859D01*
X-43926Y-51751D01*
X-43896Y-51641D01*
X-43871Y-51531D01*
X-43849Y-51420D01*
X-43832Y-51308D01*
X-43818Y-51195D01*
X-43808Y-51082D01*
X-43802Y-50969D01*
X-43800Y-50856D01*
X-43801Y-50856D02*
X-43801Y-47611D01*
X-43803Y-47468D01*
X-43809Y-47325D01*
X-43819Y-47182D01*
X-43833Y-47040D01*
X-43850Y-46898D01*
X-43872Y-46756D01*
X-43897Y-46615D01*
X-43927Y-46475D01*
X-43960Y-46336D01*
X-43997Y-46198D01*
X-44038Y-46061D01*
X-44082Y-45925D01*
X-44131Y-45790D01*
X-44183Y-45657D01*
X-44238Y-45525D01*
X-44298Y-45395D01*
X-44361Y-45266D01*
X-44427Y-45139D01*
X-44497Y-45015D01*
X-44570Y-44892D01*
X-44647Y-44771D01*
X-44726Y-44652D01*
X-44810Y-44536D01*
X-44896Y-44421D01*
X-44985Y-44310D01*
X-45078Y-44201D01*
X-45173Y-44094D01*
X-45272Y-43990D01*
X-45373Y-43889D01*
X-45477Y-43790D01*
X-45583Y-43695D01*
X-45693Y-43602D01*
X-45804Y-43513D01*
X-45918Y-43427D01*
X-46035Y-43344D01*
X-46154Y-43264D01*
X-46275Y-43187D01*
X-46397Y-43114D01*
X-46522Y-43044D01*
X-46649Y-42978D01*
X-46778Y-42915D01*
X-46908Y-42855D01*
X-47040Y-42800D01*
X-47173Y-42748D01*
X-47308Y-42699D01*
X-47444Y-42655D01*
X-47581Y-42614D01*
X-47719Y-42577D01*
X-47858Y-42544D01*
X-47998Y-42514D01*
X-48139Y-42489D01*
X-48281Y-42467D01*
X-48423Y-42450D01*
X-48565Y-42436D01*
X-48708Y-42426D01*
X-48851Y-42420D01*
X-48994Y-42418D01*
X72489Y25908D02*
X72489Y37592D01*
X69243Y37592D01*
X69130Y37590D01*
X69017Y37584D01*
X68904Y37574D01*
X68791Y37560D01*
X68679Y37543D01*
X68568Y37521D01*
X68458Y37496D01*
X68348Y37466D01*
X68240Y37433D01*
X68133Y37396D01*
X68027Y37356D01*
X67923Y37311D01*
X67820Y37263D01*
X67719Y37212D01*
X67620Y37157D01*
X67523Y37099D01*
X67428Y37037D01*
X67335Y36972D01*
X67245Y36904D01*
X67157Y36833D01*
X67071Y36758D01*
X66988Y36681D01*
X66908Y36601D01*
X66831Y36518D01*
X66756Y36432D01*
X66685Y36344D01*
X66617Y36254D01*
X66552Y36161D01*
X66490Y36066D01*
X66432Y35969D01*
X66377Y35870D01*
X66326Y35769D01*
X66278Y35666D01*
X66233Y35562D01*
X66193Y35456D01*
X66156Y35349D01*
X66123Y35241D01*
X66093Y35131D01*
X66068Y35021D01*
X66046Y34910D01*
X66029Y34798D01*
X66015Y34685D01*
X66005Y34572D01*
X65999Y34459D01*
X65997Y34346D01*
X65999Y34233D01*
X66005Y34120D01*
X66015Y34007D01*
X66029Y33894D01*
X66046Y33782D01*
X66068Y33671D01*
X66093Y33561D01*
X66123Y33451D01*
X66156Y33343D01*
X66193Y33236D01*
X66233Y33130D01*
X66278Y33026D01*
X66326Y32923D01*
X66377Y32822D01*
X66432Y32723D01*
X66490Y32626D01*
X66552Y32531D01*
X66617Y32438D01*
X66685Y32348D01*
X66756Y32260D01*
X66831Y32174D01*
X66908Y32091D01*
X66988Y32011D01*
X67071Y31934D01*
X67157Y31859D01*
X67245Y31788D01*
X67335Y31720D01*
X67428Y31655D01*
X67523Y31593D01*
X67620Y31535D01*
X67719Y31480D01*
X67820Y31429D01*
X67923Y31381D01*
X68027Y31336D01*
X68133Y31296D01*
X68240Y31259D01*
X68348Y31226D01*
X68458Y31196D01*
X68568Y31171D01*
X68679Y31149D01*
X68791Y31132D01*
X68904Y31118D01*
X69017Y31108D01*
X69130Y31102D01*
X69243Y31100D01*
X69243Y31101D02*
X72489Y31101D01*
X61609Y36294D02*
X61609Y37592D01*
X55118Y37592D01*
X58364Y25908D01*
X50292Y42418D02*
X50292Y54102D01*
X47046Y54102D01*
X46933Y54100D01*
X46820Y54094D01*
X46707Y54084D01*
X46594Y54070D01*
X46482Y54053D01*
X46371Y54031D01*
X46261Y54006D01*
X46151Y53976D01*
X46043Y53943D01*
X45936Y53906D01*
X45830Y53866D01*
X45726Y53821D01*
X45623Y53773D01*
X45522Y53722D01*
X45423Y53667D01*
X45326Y53609D01*
X45231Y53547D01*
X45138Y53482D01*
X45048Y53414D01*
X44960Y53343D01*
X44874Y53268D01*
X44791Y53191D01*
X44711Y53111D01*
X44634Y53028D01*
X44559Y52942D01*
X44488Y52854D01*
X44420Y52764D01*
X44355Y52671D01*
X44293Y52576D01*
X44235Y52479D01*
X44180Y52380D01*
X44129Y52279D01*
X44081Y52176D01*
X44036Y52072D01*
X43996Y51966D01*
X43959Y51859D01*
X43926Y51751D01*
X43896Y51641D01*
X43871Y51531D01*
X43849Y51420D01*
X43832Y51308D01*
X43818Y51195D01*
X43808Y51082D01*
X43802Y50969D01*
X43800Y50856D01*
X43802Y50743D01*
X43808Y50630D01*
X43818Y50517D01*
X43832Y50404D01*
X43849Y50292D01*
X43871Y50181D01*
X43896Y50071D01*
X43926Y49961D01*
X43959Y49853D01*
X43996Y49746D01*
X44036Y49640D01*
X44081Y49536D01*
X44129Y49433D01*
X44180Y49332D01*
X44235Y49233D01*
X44293Y49136D01*
X44355Y49041D01*
X44420Y48948D01*
X44488Y48858D01*
X44559Y48770D01*
X44634Y48684D01*
X44711Y48601D01*
X44791Y48521D01*
X44874Y48444D01*
X44960Y48369D01*
X45048Y48298D01*
X45138Y48230D01*
X45231Y48165D01*
X45326Y48103D01*
X45423Y48045D01*
X45522Y47990D01*
X45623Y47939D01*
X45726Y47891D01*
X45830Y47846D01*
X45936Y47806D01*
X46043Y47769D01*
X46151Y47736D01*
X46261Y47706D01*
X46371Y47681D01*
X46482Y47659D01*
X46594Y47642D01*
X46707Y47628D01*
X46820Y47618D01*
X46933Y47612D01*
X47046Y47610D01*
X47046Y47611D02*
X50292Y47611D01*
X39413Y45664D02*
X39411Y45777D01*
X39405Y45890D01*
X39395Y46003D01*
X39381Y46116D01*
X39364Y46228D01*
X39342Y46339D01*
X39317Y46449D01*
X39287Y46559D01*
X39254Y46667D01*
X39217Y46774D01*
X39177Y46880D01*
X39132Y46984D01*
X39084Y47087D01*
X39033Y47188D01*
X38978Y47287D01*
X38920Y47384D01*
X38858Y47479D01*
X38793Y47572D01*
X38725Y47662D01*
X38654Y47750D01*
X38579Y47836D01*
X38502Y47919D01*
X38422Y47999D01*
X38339Y48076D01*
X38253Y48151D01*
X38165Y48222D01*
X38075Y48290D01*
X37982Y48355D01*
X37887Y48417D01*
X37790Y48475D01*
X37691Y48530D01*
X37590Y48581D01*
X37487Y48629D01*
X37383Y48674D01*
X37277Y48714D01*
X37170Y48751D01*
X37062Y48784D01*
X36952Y48814D01*
X36842Y48839D01*
X36731Y48861D01*
X36619Y48878D01*
X36506Y48892D01*
X36393Y48902D01*
X36280Y48908D01*
X36167Y48910D01*
X36054Y48908D01*
X35941Y48902D01*
X35828Y48892D01*
X35715Y48878D01*
X35603Y48861D01*
X35492Y48839D01*
X35382Y48814D01*
X35272Y48784D01*
X35164Y48751D01*
X35057Y48714D01*
X34951Y48674D01*
X34847Y48629D01*
X34744Y48581D01*
X34643Y48530D01*
X34544Y48475D01*
X34447Y48417D01*
X34352Y48355D01*
X34259Y48290D01*
X34169Y48222D01*
X34081Y48151D01*
X33995Y48076D01*
X33912Y47999D01*
X33832Y47919D01*
X33755Y47836D01*
X33680Y47750D01*
X33609Y47662D01*
X33541Y47572D01*
X33476Y47479D01*
X33414Y47384D01*
X33356Y47287D01*
X33301Y47188D01*
X33250Y47087D01*
X33202Y46984D01*
X33157Y46880D01*
X33117Y46774D01*
X33080Y46667D01*
X33047Y46559D01*
X33017Y46449D01*
X32992Y46339D01*
X32970Y46228D01*
X32953Y46116D01*
X32939Y46003D01*
X32929Y45890D01*
X32923Y45777D01*
X32921Y45664D01*
X32923Y45551D01*
X32929Y45438D01*
X32939Y45325D01*
X32953Y45212D01*
X32970Y45100D01*
X32992Y44989D01*
X33017Y44879D01*
X33047Y44769D01*
X33080Y44661D01*
X33117Y44554D01*
X33157Y44448D01*
X33202Y44344D01*
X33250Y44241D01*
X33301Y44140D01*
X33356Y44041D01*
X33414Y43944D01*
X33476Y43849D01*
X33541Y43756D01*
X33609Y43666D01*
X33680Y43578D01*
X33755Y43492D01*
X33832Y43409D01*
X33912Y43329D01*
X33995Y43252D01*
X34081Y43177D01*
X34169Y43106D01*
X34259Y43038D01*
X34352Y42973D01*
X34447Y42911D01*
X34544Y42853D01*
X34643Y42798D01*
X34744Y42747D01*
X34847Y42699D01*
X34951Y42654D01*
X35057Y42614D01*
X35164Y42577D01*
X35272Y42544D01*
X35382Y42514D01*
X35492Y42489D01*
X35603Y42467D01*
X35715Y42450D01*
X35828Y42436D01*
X35941Y42426D01*
X36054Y42420D01*
X36167Y42418D01*
X36280Y42420D01*
X36393Y42426D01*
X36506Y42436D01*
X36619Y42450D01*
X36731Y42467D01*
X36842Y42489D01*
X36952Y42514D01*
X37062Y42544D01*
X37170Y42577D01*
X37277Y42614D01*
X37383Y42654D01*
X37487Y42699D01*
X37590Y42747D01*
X37691Y42798D01*
X37790Y42853D01*
X37887Y42911D01*
X37982Y42973D01*
X38075Y43038D01*
X38165Y43106D01*
X38253Y43177D01*
X38339Y43252D01*
X38422Y43329D01*
X38502Y43409D01*
X38579Y43492D01*
X38654Y43578D01*
X38725Y43666D01*
X38793Y43756D01*
X38858Y43849D01*
X38920Y43944D01*
X38978Y44041D01*
X39033Y44140D01*
X39084Y44241D01*
X39132Y44344D01*
X39177Y44448D01*
X39217Y44554D01*
X39254Y44661D01*
X39287Y44769D01*
X39317Y44879D01*
X39342Y44989D01*
X39364Y45100D01*
X39381Y45212D01*
X39395Y45325D01*
X39405Y45438D01*
X39411Y45551D01*
X39413Y45664D01*
X38763Y51506D02*
X38761Y51607D01*
X38755Y51707D01*
X38745Y51807D01*
X38732Y51907D01*
X38714Y52006D01*
X38693Y52105D01*
X38668Y52202D01*
X38639Y52299D01*
X38606Y52394D01*
X38570Y52488D01*
X38530Y52580D01*
X38487Y52671D01*
X38440Y52760D01*
X38390Y52847D01*
X38336Y52933D01*
X38279Y53016D01*
X38219Y53096D01*
X38156Y53175D01*
X38089Y53251D01*
X38020Y53324D01*
X37948Y53394D01*
X37874Y53462D01*
X37797Y53527D01*
X37717Y53588D01*
X37635Y53647D01*
X37551Y53702D01*
X37465Y53754D01*
X37377Y53803D01*
X37287Y53848D01*
X37195Y53890D01*
X37102Y53928D01*
X37007Y53962D01*
X36912Y53993D01*
X36815Y54020D01*
X36717Y54043D01*
X36618Y54063D01*
X36518Y54078D01*
X36418Y54090D01*
X36318Y54098D01*
X36217Y54102D01*
X36117Y54102D01*
X36016Y54098D01*
X35916Y54090D01*
X35816Y54078D01*
X35716Y54063D01*
X35617Y54043D01*
X35519Y54020D01*
X35422Y53993D01*
X35327Y53962D01*
X35232Y53928D01*
X35139Y53890D01*
X35047Y53848D01*
X34957Y53803D01*
X34869Y53754D01*
X34783Y53702D01*
X34699Y53647D01*
X34617Y53588D01*
X34537Y53527D01*
X34460Y53462D01*
X34386Y53394D01*
X34314Y53324D01*
X34245Y53251D01*
X34178Y53175D01*
X34115Y53096D01*
X34055Y53016D01*
X33998Y52933D01*
X33944Y52847D01*
X33894Y52760D01*
X33847Y52671D01*
X33804Y52580D01*
X33764Y52488D01*
X33728Y52394D01*
X33695Y52299D01*
X33666Y52202D01*
X33641Y52105D01*
X33620Y52006D01*
X33602Y51907D01*
X33589Y51807D01*
X33579Y51707D01*
X33573Y51607D01*
X33571Y51506D01*
X33573Y51405D01*
X33579Y51305D01*
X33589Y51205D01*
X33602Y51105D01*
X33620Y51006D01*
X33641Y50907D01*
X33666Y50810D01*
X33695Y50713D01*
X33728Y50618D01*
X33764Y50524D01*
X33804Y50432D01*
X33847Y50341D01*
X33894Y50252D01*
X33944Y50165D01*
X33998Y50079D01*
X34055Y49996D01*
X34115Y49916D01*
X34178Y49837D01*
X34245Y49761D01*
X34314Y49688D01*
X34386Y49618D01*
X34460Y49550D01*
X34537Y49485D01*
X34617Y49424D01*
X34699Y49365D01*
X34783Y49310D01*
X34869Y49258D01*
X34957Y49209D01*
X35047Y49164D01*
X35139Y49122D01*
X35232Y49084D01*
X35327Y49050D01*
X35422Y49019D01*
X35519Y48992D01*
X35617Y48969D01*
X35716Y48949D01*
X35816Y48934D01*
X35916Y48922D01*
X36016Y48914D01*
X36117Y48910D01*
X36217Y48910D01*
X36318Y48914D01*
X36418Y48922D01*
X36518Y48934D01*
X36618Y48949D01*
X36717Y48969D01*
X36815Y48992D01*
X36912Y49019D01*
X37007Y49050D01*
X37102Y49084D01*
X37195Y49122D01*
X37287Y49164D01*
X37377Y49209D01*
X37465Y49258D01*
X37551Y49310D01*
X37635Y49365D01*
X37717Y49424D01*
X37797Y49485D01*
X37874Y49550D01*
X37948Y49618D01*
X38020Y49688D01*
X38089Y49761D01*
X38156Y49837D01*
X38219Y49916D01*
X38279Y49996D01*
X38336Y50079D01*
X38390Y50165D01*
X38440Y50252D01*
X38487Y50341D01*
X38530Y50432D01*
X38570Y50524D01*
X38606Y50618D01*
X38639Y50713D01*
X38668Y50810D01*
X38693Y50907D01*
X38714Y51006D01*
X38732Y51105D01*
X38745Y51205D01*
X38755Y51305D01*
X38761Y51405D01*
X38763Y51506D01*
X-119126Y58420D02*
X-119126Y70104D01*
X-122372Y70104D01*
X-122485Y70102D01*
X-122598Y70096D01*
X-122711Y70086D01*
X-122824Y70072D01*
X-122936Y70055D01*
X-123047Y70033D01*
X-123157Y70008D01*
X-123267Y69978D01*
X-123375Y69945D01*
X-123482Y69908D01*
X-123588Y69868D01*
X-123692Y69823D01*
X-123795Y69775D01*
X-123896Y69724D01*
X-123995Y69669D01*
X-124092Y69611D01*
X-124187Y69549D01*
X-124280Y69484D01*
X-124370Y69416D01*
X-124458Y69345D01*
X-124544Y69270D01*
X-124627Y69193D01*
X-124707Y69113D01*
X-124784Y69030D01*
X-124859Y68944D01*
X-124930Y68856D01*
X-124998Y68766D01*
X-125063Y68673D01*
X-125125Y68578D01*
X-125183Y68481D01*
X-125238Y68382D01*
X-125289Y68281D01*
X-125337Y68178D01*
X-125382Y68074D01*
X-125422Y67968D01*
X-125459Y67861D01*
X-125492Y67753D01*
X-125522Y67643D01*
X-125547Y67533D01*
X-125569Y67422D01*
X-125586Y67310D01*
X-125600Y67197D01*
X-125610Y67084D01*
X-125616Y66971D01*
X-125618Y66858D01*
X-125616Y66745D01*
X-125610Y66632D01*
X-125600Y66519D01*
X-125586Y66406D01*
X-125569Y66294D01*
X-125547Y66183D01*
X-125522Y66073D01*
X-125492Y65963D01*
X-125459Y65855D01*
X-125422Y65748D01*
X-125382Y65642D01*
X-125337Y65538D01*
X-125289Y65435D01*
X-125238Y65334D01*
X-125183Y65235D01*
X-125125Y65138D01*
X-125063Y65043D01*
X-124998Y64950D01*
X-124930Y64860D01*
X-124859Y64772D01*
X-124784Y64686D01*
X-124707Y64603D01*
X-124627Y64523D01*
X-124544Y64446D01*
X-124458Y64371D01*
X-124370Y64300D01*
X-124280Y64232D01*
X-124187Y64167D01*
X-124092Y64105D01*
X-123995Y64047D01*
X-123896Y63992D01*
X-123795Y63941D01*
X-123692Y63893D01*
X-123588Y63848D01*
X-123482Y63808D01*
X-123375Y63771D01*
X-123267Y63738D01*
X-123157Y63708D01*
X-123047Y63683D01*
X-122936Y63661D01*
X-122824Y63644D01*
X-122711Y63630D01*
X-122598Y63620D01*
X-122485Y63614D01*
X-122372Y63612D01*
X-122372Y63613D02*
X-119126Y63613D01*
X-123021Y63613D02*
X-125617Y58420D01*
X-130482Y58420D02*
X-134377Y58420D01*
X-134476Y58422D01*
X-134576Y58428D01*
X-134675Y58437D01*
X-134773Y58450D01*
X-134871Y58467D01*
X-134969Y58488D01*
X-135065Y58513D01*
X-135160Y58541D01*
X-135254Y58573D01*
X-135347Y58608D01*
X-135439Y58647D01*
X-135529Y58690D01*
X-135617Y58735D01*
X-135704Y58785D01*
X-135788Y58837D01*
X-135871Y58893D01*
X-135951Y58951D01*
X-136029Y59013D01*
X-136104Y59078D01*
X-136177Y59146D01*
X-136247Y59216D01*
X-136315Y59289D01*
X-136380Y59364D01*
X-136442Y59442D01*
X-136500Y59522D01*
X-136556Y59605D01*
X-136608Y59689D01*
X-136658Y59776D01*
X-136703Y59864D01*
X-136746Y59954D01*
X-136785Y60046D01*
X-136820Y60139D01*
X-136852Y60233D01*
X-136880Y60328D01*
X-136905Y60424D01*
X-136926Y60522D01*
X-136943Y60620D01*
X-136956Y60718D01*
X-136965Y60817D01*
X-136971Y60917D01*
X-136973Y61016D01*
X-136973Y62315D01*
X-136971Y62414D01*
X-136965Y62514D01*
X-136956Y62613D01*
X-136943Y62711D01*
X-136926Y62809D01*
X-136905Y62907D01*
X-136880Y63003D01*
X-136852Y63098D01*
X-136820Y63192D01*
X-136785Y63285D01*
X-136746Y63377D01*
X-136703Y63467D01*
X-136658Y63555D01*
X-136608Y63642D01*
X-136556Y63726D01*
X-136500Y63809D01*
X-136442Y63889D01*
X-136380Y63967D01*
X-136315Y64042D01*
X-136247Y64115D01*
X-136177Y64185D01*
X-136104Y64253D01*
X-136029Y64318D01*
X-135951Y64380D01*
X-135871Y64438D01*
X-135788Y64494D01*
X-135704Y64546D01*
X-135617Y64596D01*
X-135529Y64641D01*
X-135439Y64684D01*
X-135347Y64723D01*
X-135254Y64758D01*
X-135160Y64790D01*
X-135065Y64818D01*
X-134969Y64843D01*
X-134871Y64864D01*
X-134773Y64881D01*
X-134675Y64894D01*
X-134576Y64903D01*
X-134476Y64909D01*
X-134377Y64911D01*
X-130482Y64911D01*
X-130482Y70104D01*
X-136973Y70104D01*
X70231Y-119126D02*
X70231Y-130810D01*
X70231Y-119126D02*
X66985Y-119126D01*
X66872Y-119128D01*
X66759Y-119134D01*
X66646Y-119144D01*
X66533Y-119158D01*
X66421Y-119175D01*
X66310Y-119197D01*
X66200Y-119222D01*
X66090Y-119252D01*
X65982Y-119285D01*
X65875Y-119322D01*
X65769Y-119362D01*
X65665Y-119407D01*
X65562Y-119455D01*
X65461Y-119506D01*
X65362Y-119561D01*
X65265Y-119619D01*
X65170Y-119681D01*
X65077Y-119746D01*
X64987Y-119814D01*
X64899Y-119885D01*
X64813Y-119960D01*
X64730Y-120037D01*
X64650Y-120117D01*
X64573Y-120200D01*
X64498Y-120286D01*
X64427Y-120374D01*
X64359Y-120464D01*
X64294Y-120557D01*
X64232Y-120652D01*
X64174Y-120749D01*
X64119Y-120848D01*
X64068Y-120949D01*
X64020Y-121052D01*
X63975Y-121156D01*
X63935Y-121262D01*
X63898Y-121369D01*
X63865Y-121477D01*
X63835Y-121587D01*
X63810Y-121697D01*
X63788Y-121808D01*
X63771Y-121920D01*
X63757Y-122033D01*
X63747Y-122146D01*
X63741Y-122259D01*
X63739Y-122372D01*
X63741Y-122485D01*
X63747Y-122598D01*
X63757Y-122711D01*
X63771Y-122824D01*
X63788Y-122936D01*
X63810Y-123047D01*
X63835Y-123157D01*
X63865Y-123267D01*
X63898Y-123375D01*
X63935Y-123482D01*
X63975Y-123588D01*
X64020Y-123692D01*
X64068Y-123795D01*
X64119Y-123896D01*
X64174Y-123995D01*
X64232Y-124092D01*
X64294Y-124187D01*
X64359Y-124280D01*
X64427Y-124370D01*
X64498Y-124458D01*
X64573Y-124544D01*
X64650Y-124627D01*
X64730Y-124707D01*
X64813Y-124784D01*
X64899Y-124859D01*
X64987Y-124930D01*
X65077Y-124998D01*
X65170Y-125063D01*
X65265Y-125125D01*
X65362Y-125183D01*
X65461Y-125238D01*
X65562Y-125289D01*
X65665Y-125337D01*
X65769Y-125382D01*
X65875Y-125422D01*
X65982Y-125459D01*
X66090Y-125492D01*
X66200Y-125522D01*
X66310Y-125547D01*
X66421Y-125569D01*
X66533Y-125586D01*
X66646Y-125600D01*
X66759Y-125610D01*
X66872Y-125616D01*
X66985Y-125618D01*
X66985Y-125617D02*
X70231Y-125617D01*
X66336Y-125617D02*
X63740Y-130810D01*
X58875Y-124319D02*
X54980Y-124319D01*
X54881Y-124321D01*
X54781Y-124327D01*
X54682Y-124336D01*
X54584Y-124349D01*
X54486Y-124366D01*
X54388Y-124387D01*
X54292Y-124412D01*
X54197Y-124440D01*
X54103Y-124472D01*
X54010Y-124507D01*
X53918Y-124546D01*
X53828Y-124589D01*
X53740Y-124634D01*
X53653Y-124684D01*
X53569Y-124736D01*
X53486Y-124792D01*
X53406Y-124850D01*
X53328Y-124912D01*
X53253Y-124977D01*
X53180Y-125045D01*
X53110Y-125115D01*
X53042Y-125188D01*
X52977Y-125263D01*
X52915Y-125341D01*
X52857Y-125421D01*
X52801Y-125504D01*
X52749Y-125588D01*
X52699Y-125675D01*
X52654Y-125763D01*
X52611Y-125853D01*
X52572Y-125945D01*
X52537Y-126038D01*
X52505Y-126132D01*
X52477Y-126227D01*
X52452Y-126323D01*
X52431Y-126421D01*
X52414Y-126519D01*
X52401Y-126617D01*
X52392Y-126716D01*
X52386Y-126816D01*
X52384Y-126915D01*
X52384Y-127564D01*
X52383Y-127564D02*
X52385Y-127677D01*
X52391Y-127790D01*
X52401Y-127903D01*
X52415Y-128016D01*
X52432Y-128128D01*
X52454Y-128239D01*
X52479Y-128349D01*
X52509Y-128459D01*
X52542Y-128567D01*
X52579Y-128674D01*
X52619Y-128780D01*
X52664Y-128884D01*
X52712Y-128987D01*
X52763Y-129088D01*
X52818Y-129187D01*
X52876Y-129284D01*
X52938Y-129379D01*
X53003Y-129472D01*
X53071Y-129562D01*
X53142Y-129650D01*
X53217Y-129736D01*
X53294Y-129819D01*
X53374Y-129899D01*
X53457Y-129976D01*
X53543Y-130051D01*
X53631Y-130122D01*
X53721Y-130190D01*
X53814Y-130255D01*
X53909Y-130317D01*
X54006Y-130375D01*
X54105Y-130430D01*
X54206Y-130481D01*
X54309Y-130529D01*
X54413Y-130574D01*
X54519Y-130614D01*
X54626Y-130651D01*
X54734Y-130684D01*
X54844Y-130714D01*
X54954Y-130739D01*
X55065Y-130761D01*
X55177Y-130778D01*
X55290Y-130792D01*
X55403Y-130802D01*
X55516Y-130808D01*
X55629Y-130810D01*
X55742Y-130808D01*
X55855Y-130802D01*
X55968Y-130792D01*
X56081Y-130778D01*
X56193Y-130761D01*
X56304Y-130739D01*
X56414Y-130714D01*
X56524Y-130684D01*
X56632Y-130651D01*
X56739Y-130614D01*
X56845Y-130574D01*
X56949Y-130529D01*
X57052Y-130481D01*
X57153Y-130430D01*
X57252Y-130375D01*
X57349Y-130317D01*
X57444Y-130255D01*
X57537Y-130190D01*
X57627Y-130122D01*
X57715Y-130051D01*
X57801Y-129976D01*
X57884Y-129899D01*
X57964Y-129819D01*
X58041Y-129736D01*
X58116Y-129650D01*
X58187Y-129562D01*
X58255Y-129472D01*
X58320Y-129379D01*
X58382Y-129284D01*
X58440Y-129187D01*
X58495Y-129088D01*
X58546Y-128987D01*
X58594Y-128884D01*
X58639Y-128780D01*
X58679Y-128674D01*
X58716Y-128567D01*
X58749Y-128459D01*
X58779Y-128349D01*
X58804Y-128239D01*
X58826Y-128128D01*
X58843Y-128016D01*
X58857Y-127903D01*
X58867Y-127790D01*
X58873Y-127677D01*
X58875Y-127564D01*
X58875Y-124319D01*
X58873Y-124176D01*
X58867Y-124033D01*
X58857Y-123890D01*
X58843Y-123748D01*
X58826Y-123606D01*
X58804Y-123464D01*
X58779Y-123323D01*
X58749Y-123183D01*
X58716Y-123044D01*
X58679Y-122906D01*
X58638Y-122769D01*
X58594Y-122633D01*
X58545Y-122498D01*
X58493Y-122365D01*
X58438Y-122233D01*
X58378Y-122103D01*
X58315Y-121974D01*
X58249Y-121847D01*
X58179Y-121723D01*
X58106Y-121600D01*
X58029Y-121479D01*
X57950Y-121360D01*
X57866Y-121244D01*
X57780Y-121129D01*
X57691Y-121018D01*
X57598Y-120909D01*
X57503Y-120802D01*
X57404Y-120698D01*
X57303Y-120597D01*
X57199Y-120498D01*
X57093Y-120403D01*
X56983Y-120310D01*
X56872Y-120221D01*
X56758Y-120135D01*
X56641Y-120052D01*
X56522Y-119972D01*
X56401Y-119895D01*
X56279Y-119822D01*
X56154Y-119752D01*
X56027Y-119686D01*
X55898Y-119623D01*
X55768Y-119563D01*
X55636Y-119508D01*
X55503Y-119456D01*
X55368Y-119407D01*
X55232Y-119363D01*
X55095Y-119322D01*
X54957Y-119285D01*
X54818Y-119252D01*
X54678Y-119222D01*
X54537Y-119197D01*
X54395Y-119175D01*
X54253Y-119158D01*
X54111Y-119144D01*
X53968Y-119134D01*
X53825Y-119128D01*
X53682Y-119126D01*
X143510Y-70231D02*
X143510Y-58547D01*
X140264Y-58547D01*
X140151Y-58549D01*
X140038Y-58555D01*
X139925Y-58565D01*
X139812Y-58579D01*
X139700Y-58596D01*
X139589Y-58618D01*
X139479Y-58643D01*
X139369Y-58673D01*
X139261Y-58706D01*
X139154Y-58743D01*
X139048Y-58783D01*
X138944Y-58828D01*
X138841Y-58876D01*
X138740Y-58927D01*
X138641Y-58982D01*
X138544Y-59040D01*
X138449Y-59102D01*
X138356Y-59167D01*
X138266Y-59235D01*
X138178Y-59306D01*
X138092Y-59381D01*
X138009Y-59458D01*
X137929Y-59538D01*
X137852Y-59621D01*
X137777Y-59707D01*
X137706Y-59795D01*
X137638Y-59885D01*
X137573Y-59978D01*
X137511Y-60073D01*
X137453Y-60170D01*
X137398Y-60269D01*
X137347Y-60370D01*
X137299Y-60473D01*
X137254Y-60577D01*
X137214Y-60683D01*
X137177Y-60790D01*
X137144Y-60898D01*
X137114Y-61008D01*
X137089Y-61118D01*
X137067Y-61229D01*
X137050Y-61341D01*
X137036Y-61454D01*
X137026Y-61567D01*
X137020Y-61680D01*
X137018Y-61793D01*
X137020Y-61906D01*
X137026Y-62019D01*
X137036Y-62132D01*
X137050Y-62245D01*
X137067Y-62357D01*
X137089Y-62468D01*
X137114Y-62578D01*
X137144Y-62688D01*
X137177Y-62796D01*
X137214Y-62903D01*
X137254Y-63009D01*
X137299Y-63113D01*
X137347Y-63216D01*
X137398Y-63317D01*
X137453Y-63416D01*
X137511Y-63513D01*
X137573Y-63608D01*
X137638Y-63701D01*
X137706Y-63791D01*
X137777Y-63879D01*
X137852Y-63965D01*
X137929Y-64048D01*
X138009Y-64128D01*
X138092Y-64205D01*
X138178Y-64280D01*
X138266Y-64351D01*
X138356Y-64419D01*
X138449Y-64484D01*
X138544Y-64546D01*
X138641Y-64604D01*
X138740Y-64659D01*
X138841Y-64710D01*
X138944Y-64758D01*
X139048Y-64803D01*
X139154Y-64843D01*
X139261Y-64880D01*
X139369Y-64913D01*
X139479Y-64943D01*
X139589Y-64968D01*
X139700Y-64990D01*
X139812Y-65007D01*
X139925Y-65021D01*
X140038Y-65031D01*
X140151Y-65037D01*
X140264Y-65039D01*
X140264Y-65038D02*
X143510Y-65038D01*
X139615Y-65038D02*
X137019Y-70231D01*
X132154Y-59845D02*
X132154Y-58547D01*
X125663Y-58547D01*
X128908Y-70231D01*
X-58547Y119126D02*
X-58547Y130810D01*
X-61793Y130810D01*
X-61906Y130808D01*
X-62019Y130802D01*
X-62132Y130792D01*
X-62245Y130778D01*
X-62357Y130761D01*
X-62468Y130739D01*
X-62578Y130714D01*
X-62688Y130684D01*
X-62796Y130651D01*
X-62903Y130614D01*
X-63009Y130574D01*
X-63113Y130529D01*
X-63216Y130481D01*
X-63317Y130430D01*
X-63416Y130375D01*
X-63513Y130317D01*
X-63608Y130255D01*
X-63701Y130190D01*
X-63791Y130122D01*
X-63879Y130051D01*
X-63965Y129976D01*
X-64048Y129899D01*
X-64128Y129819D01*
X-64205Y129736D01*
X-64280Y129650D01*
X-64351Y129562D01*
X-64419Y129472D01*
X-64484Y129379D01*
X-64546Y129284D01*
X-64604Y129187D01*
X-64659Y129088D01*
X-64710Y128987D01*
X-64758Y128884D01*
X-64803Y128780D01*
X-64843Y128674D01*
X-64880Y128567D01*
X-64913Y128459D01*
X-64943Y128349D01*
X-64968Y128239D01*
X-64990Y128128D01*
X-65007Y128016D01*
X-65021Y127903D01*
X-65031Y127790D01*
X-65037Y127677D01*
X-65039Y127564D01*
X-65037Y127451D01*
X-65031Y127338D01*
X-65021Y127225D01*
X-65007Y127112D01*
X-64990Y127000D01*
X-64968Y126889D01*
X-64943Y126779D01*
X-64913Y126669D01*
X-64880Y126561D01*
X-64843Y126454D01*
X-64803Y126348D01*
X-64758Y126244D01*
X-64710Y126141D01*
X-64659Y126040D01*
X-64604Y125941D01*
X-64546Y125844D01*
X-64484Y125749D01*
X-64419Y125656D01*
X-64351Y125566D01*
X-64280Y125478D01*
X-64205Y125392D01*
X-64128Y125309D01*
X-64048Y125229D01*
X-63965Y125152D01*
X-63879Y125077D01*
X-63791Y125006D01*
X-63701Y124938D01*
X-63608Y124873D01*
X-63513Y124811D01*
X-63416Y124753D01*
X-63317Y124698D01*
X-63216Y124647D01*
X-63113Y124599D01*
X-63009Y124554D01*
X-62903Y124514D01*
X-62796Y124477D01*
X-62688Y124444D01*
X-62578Y124414D01*
X-62468Y124389D01*
X-62357Y124367D01*
X-62245Y124350D01*
X-62132Y124336D01*
X-62019Y124326D01*
X-61906Y124320D01*
X-61793Y124318D01*
X-61793Y124319D02*
X-58547Y124319D01*
X-62442Y124319D02*
X-65038Y119126D01*
X-69903Y122372D02*
X-69905Y122485D01*
X-69911Y122598D01*
X-69921Y122711D01*
X-69935Y122824D01*
X-69952Y122936D01*
X-69974Y123047D01*
X-69999Y123157D01*
X-70029Y123267D01*
X-70062Y123375D01*
X-70099Y123482D01*
X-70139Y123588D01*
X-70184Y123692D01*
X-70232Y123795D01*
X-70283Y123896D01*
X-70338Y123995D01*
X-70396Y124092D01*
X-70458Y124187D01*
X-70523Y124280D01*
X-70591Y124370D01*
X-70662Y124458D01*
X-70737Y124544D01*
X-70814Y124627D01*
X-70894Y124707D01*
X-70977Y124784D01*
X-71063Y124859D01*
X-71151Y124930D01*
X-71241Y124998D01*
X-71334Y125063D01*
X-71429Y125125D01*
X-71526Y125183D01*
X-71625Y125238D01*
X-71726Y125289D01*
X-71829Y125337D01*
X-71933Y125382D01*
X-72039Y125422D01*
X-72146Y125459D01*
X-72254Y125492D01*
X-72364Y125522D01*
X-72474Y125547D01*
X-72585Y125569D01*
X-72697Y125586D01*
X-72810Y125600D01*
X-72923Y125610D01*
X-73036Y125616D01*
X-73149Y125618D01*
X-73262Y125616D01*
X-73375Y125610D01*
X-73488Y125600D01*
X-73601Y125586D01*
X-73713Y125569D01*
X-73824Y125547D01*
X-73934Y125522D01*
X-74044Y125492D01*
X-74152Y125459D01*
X-74259Y125422D01*
X-74365Y125382D01*
X-74469Y125337D01*
X-74572Y125289D01*
X-74673Y125238D01*
X-74772Y125183D01*
X-74869Y125125D01*
X-74964Y125063D01*
X-75057Y124998D01*
X-75147Y124930D01*
X-75235Y124859D01*
X-75321Y124784D01*
X-75404Y124707D01*
X-75484Y124627D01*
X-75561Y124544D01*
X-75636Y124458D01*
X-75707Y124370D01*
X-75775Y124280D01*
X-75840Y124187D01*
X-75902Y124092D01*
X-75960Y123995D01*
X-76015Y123896D01*
X-76066Y123795D01*
X-76114Y123692D01*
X-76159Y123588D01*
X-76199Y123482D01*
X-76236Y123375D01*
X-76269Y123267D01*
X-76299Y123157D01*
X-76324Y123047D01*
X-76346Y122936D01*
X-76363Y122824D01*
X-76377Y122711D01*
X-76387Y122598D01*
X-76393Y122485D01*
X-76395Y122372D01*
X-76393Y122259D01*
X-76387Y122146D01*
X-76377Y122033D01*
X-76363Y121920D01*
X-76346Y121808D01*
X-76324Y121697D01*
X-76299Y121587D01*
X-76269Y121477D01*
X-76236Y121369D01*
X-76199Y121262D01*
X-76159Y121156D01*
X-76114Y121052D01*
X-76066Y120949D01*
X-76015Y120848D01*
X-75960Y120749D01*
X-75902Y120652D01*
X-75840Y120557D01*
X-75775Y120464D01*
X-75707Y120374D01*
X-75636Y120286D01*
X-75561Y120200D01*
X-75484Y120117D01*
X-75404Y120037D01*
X-75321Y119960D01*
X-75235Y119885D01*
X-75147Y119814D01*
X-75057Y119746D01*
X-74964Y119681D01*
X-74869Y119619D01*
X-74772Y119561D01*
X-74673Y119506D01*
X-74572Y119455D01*
X-74469Y119407D01*
X-74365Y119362D01*
X-74259Y119322D01*
X-74152Y119285D01*
X-74044Y119252D01*
X-73934Y119222D01*
X-73824Y119197D01*
X-73713Y119175D01*
X-73601Y119158D01*
X-73488Y119144D01*
X-73375Y119134D01*
X-73262Y119128D01*
X-73149Y119126D01*
X-73036Y119128D01*
X-72923Y119134D01*
X-72810Y119144D01*
X-72697Y119158D01*
X-72585Y119175D01*
X-72474Y119197D01*
X-72364Y119222D01*
X-72254Y119252D01*
X-72146Y119285D01*
X-72039Y119322D01*
X-71933Y119362D01*
X-71829Y119407D01*
X-71726Y119455D01*
X-71625Y119506D01*
X-71526Y119561D01*
X-71429Y119619D01*
X-71334Y119681D01*
X-71241Y119746D01*
X-71151Y119814D01*
X-71063Y119885D01*
X-70977Y119960D01*
X-70894Y120037D01*
X-70814Y120117D01*
X-70737Y120200D01*
X-70662Y120286D01*
X-70591Y120374D01*
X-70523Y120464D01*
X-70458Y120557D01*
X-70396Y120652D01*
X-70338Y120749D01*
X-70283Y120848D01*
X-70232Y120949D01*
X-70184Y121052D01*
X-70139Y121156D01*
X-70099Y121262D01*
X-70062Y121369D01*
X-70029Y121477D01*
X-69999Y121587D01*
X-69974Y121697D01*
X-69952Y121808D01*
X-69935Y121920D01*
X-69921Y122033D01*
X-69911Y122146D01*
X-69905Y122259D01*
X-69903Y122372D01*
X-70553Y128214D02*
X-70555Y128315D01*
X-70561Y128415D01*
X-70571Y128515D01*
X-70584Y128615D01*
X-70602Y128714D01*
X-70623Y128813D01*
X-70648Y128910D01*
X-70677Y129007D01*
X-70710Y129102D01*
X-70746Y129196D01*
X-70786Y129288D01*
X-70829Y129379D01*
X-70876Y129468D01*
X-70926Y129555D01*
X-70980Y129641D01*
X-71037Y129724D01*
X-71097Y129804D01*
X-71160Y129883D01*
X-71227Y129959D01*
X-71296Y130032D01*
X-71368Y130102D01*
X-71442Y130170D01*
X-71519Y130235D01*
X-71599Y130296D01*
X-71681Y130355D01*
X-71765Y130410D01*
X-71851Y130462D01*
X-71939Y130511D01*
X-72029Y130556D01*
X-72121Y130598D01*
X-72214Y130636D01*
X-72309Y130670D01*
X-72404Y130701D01*
X-72501Y130728D01*
X-72599Y130751D01*
X-72698Y130771D01*
X-72798Y130786D01*
X-72898Y130798D01*
X-72998Y130806D01*
X-73099Y130810D01*
X-73199Y130810D01*
X-73300Y130806D01*
X-73400Y130798D01*
X-73500Y130786D01*
X-73600Y130771D01*
X-73699Y130751D01*
X-73797Y130728D01*
X-73894Y130701D01*
X-73989Y130670D01*
X-74084Y130636D01*
X-74177Y130598D01*
X-74269Y130556D01*
X-74359Y130511D01*
X-74447Y130462D01*
X-74533Y130410D01*
X-74617Y130355D01*
X-74699Y130296D01*
X-74779Y130235D01*
X-74856Y130170D01*
X-74930Y130102D01*
X-75002Y130032D01*
X-75071Y129959D01*
X-75138Y129883D01*
X-75201Y129804D01*
X-75261Y129724D01*
X-75318Y129641D01*
X-75372Y129555D01*
X-75422Y129468D01*
X-75469Y129379D01*
X-75512Y129288D01*
X-75552Y129196D01*
X-75588Y129102D01*
X-75621Y129007D01*
X-75650Y128910D01*
X-75675Y128813D01*
X-75696Y128714D01*
X-75714Y128615D01*
X-75727Y128515D01*
X-75737Y128415D01*
X-75743Y128315D01*
X-75745Y128214D01*
X-75743Y128113D01*
X-75737Y128013D01*
X-75727Y127913D01*
X-75714Y127813D01*
X-75696Y127714D01*
X-75675Y127615D01*
X-75650Y127518D01*
X-75621Y127421D01*
X-75588Y127326D01*
X-75552Y127232D01*
X-75512Y127140D01*
X-75469Y127049D01*
X-75422Y126960D01*
X-75372Y126873D01*
X-75318Y126787D01*
X-75261Y126704D01*
X-75201Y126624D01*
X-75138Y126545D01*
X-75071Y126469D01*
X-75002Y126396D01*
X-74930Y126326D01*
X-74856Y126258D01*
X-74779Y126193D01*
X-74699Y126132D01*
X-74617Y126073D01*
X-74533Y126018D01*
X-74447Y125966D01*
X-74359Y125917D01*
X-74269Y125872D01*
X-74177Y125830D01*
X-74084Y125792D01*
X-73989Y125758D01*
X-73894Y125727D01*
X-73797Y125700D01*
X-73699Y125677D01*
X-73600Y125657D01*
X-73500Y125642D01*
X-73400Y125630D01*
X-73300Y125622D01*
X-73199Y125618D01*
X-73099Y125618D01*
X-72998Y125622D01*
X-72898Y125630D01*
X-72798Y125642D01*
X-72698Y125657D01*
X-72599Y125677D01*
X-72501Y125700D01*
X-72404Y125727D01*
X-72309Y125758D01*
X-72214Y125792D01*
X-72121Y125830D01*
X-72029Y125872D01*
X-71939Y125917D01*
X-71851Y125966D01*
X-71765Y126018D01*
X-71681Y126073D01*
X-71599Y126132D01*
X-71519Y126193D01*
X-71442Y126258D01*
X-71368Y126326D01*
X-71296Y126396D01*
X-71227Y126469D01*
X-71160Y126545D01*
X-71097Y126624D01*
X-71037Y126704D01*
X-70980Y126787D01*
X-70926Y126873D01*
X-70876Y126960D01*
X-70829Y127049D01*
X-70786Y127140D01*
X-70746Y127232D01*
X-70710Y127326D01*
X-70677Y127421D01*
X-70648Y127518D01*
X-70623Y127615D01*
X-70602Y127714D01*
X-70584Y127813D01*
X-70571Y127913D01*
X-70561Y128013D01*
X-70555Y128113D01*
X-70553Y128214D01*
X-148336Y43180D02*
X-148336Y31496D01*
X-153529Y31496D01*
X-157838Y41882D02*
X-157838Y43180D01*
X-164330Y43180D01*
X-161084Y31496D01*
X43180Y-148336D02*
X43180Y-160020D01*
X37987Y-160020D01*
X33678Y-156774D02*
X33676Y-156661D01*
X33670Y-156548D01*
X33660Y-156435D01*
X33646Y-156322D01*
X33629Y-156210D01*
X33607Y-156099D01*
X33582Y-155989D01*
X33552Y-155879D01*
X33519Y-155771D01*
X33482Y-155664D01*
X33442Y-155558D01*
X33397Y-155454D01*
X33349Y-155351D01*
X33298Y-155250D01*
X33243Y-155151D01*
X33185Y-155054D01*
X33123Y-154959D01*
X33058Y-154866D01*
X32990Y-154776D01*
X32919Y-154688D01*
X32844Y-154602D01*
X32767Y-154519D01*
X32687Y-154439D01*
X32604Y-154362D01*
X32518Y-154287D01*
X32430Y-154216D01*
X32340Y-154148D01*
X32247Y-154083D01*
X32152Y-154021D01*
X32055Y-153963D01*
X31956Y-153908D01*
X31855Y-153857D01*
X31752Y-153809D01*
X31648Y-153764D01*
X31542Y-153724D01*
X31435Y-153687D01*
X31327Y-153654D01*
X31217Y-153624D01*
X31107Y-153599D01*
X30996Y-153577D01*
X30884Y-153560D01*
X30771Y-153546D01*
X30658Y-153536D01*
X30545Y-153530D01*
X30432Y-153528D01*
X30319Y-153530D01*
X30206Y-153536D01*
X30093Y-153546D01*
X29980Y-153560D01*
X29868Y-153577D01*
X29757Y-153599D01*
X29647Y-153624D01*
X29537Y-153654D01*
X29429Y-153687D01*
X29322Y-153724D01*
X29216Y-153764D01*
X29112Y-153809D01*
X29009Y-153857D01*
X28908Y-153908D01*
X28809Y-153963D01*
X28712Y-154021D01*
X28617Y-154083D01*
X28524Y-154148D01*
X28434Y-154216D01*
X28346Y-154287D01*
X28260Y-154362D01*
X28177Y-154439D01*
X28097Y-154519D01*
X28020Y-154602D01*
X27945Y-154688D01*
X27874Y-154776D01*
X27806Y-154866D01*
X27741Y-154959D01*
X27679Y-155054D01*
X27621Y-155151D01*
X27566Y-155250D01*
X27515Y-155351D01*
X27467Y-155454D01*
X27422Y-155558D01*
X27382Y-155664D01*
X27345Y-155771D01*
X27312Y-155879D01*
X27282Y-155989D01*
X27257Y-156099D01*
X27235Y-156210D01*
X27218Y-156322D01*
X27204Y-156435D01*
X27194Y-156548D01*
X27188Y-156661D01*
X27186Y-156774D01*
X27188Y-156887D01*
X27194Y-157000D01*
X27204Y-157113D01*
X27218Y-157226D01*
X27235Y-157338D01*
X27257Y-157449D01*
X27282Y-157559D01*
X27312Y-157669D01*
X27345Y-157777D01*
X27382Y-157884D01*
X27422Y-157990D01*
X27467Y-158094D01*
X27515Y-158197D01*
X27566Y-158298D01*
X27621Y-158397D01*
X27679Y-158494D01*
X27741Y-158589D01*
X27806Y-158682D01*
X27874Y-158772D01*
X27945Y-158860D01*
X28020Y-158946D01*
X28097Y-159029D01*
X28177Y-159109D01*
X28260Y-159186D01*
X28346Y-159261D01*
X28434Y-159332D01*
X28524Y-159400D01*
X28617Y-159465D01*
X28712Y-159527D01*
X28809Y-159585D01*
X28908Y-159640D01*
X29009Y-159691D01*
X29112Y-159739D01*
X29216Y-159784D01*
X29322Y-159824D01*
X29429Y-159861D01*
X29537Y-159894D01*
X29647Y-159924D01*
X29757Y-159949D01*
X29868Y-159971D01*
X29980Y-159988D01*
X30093Y-160002D01*
X30206Y-160012D01*
X30319Y-160018D01*
X30432Y-160020D01*
X30545Y-160018D01*
X30658Y-160012D01*
X30771Y-160002D01*
X30884Y-159988D01*
X30996Y-159971D01*
X31107Y-159949D01*
X31217Y-159924D01*
X31327Y-159894D01*
X31435Y-159861D01*
X31542Y-159824D01*
X31648Y-159784D01*
X31752Y-159739D01*
X31855Y-159691D01*
X31956Y-159640D01*
X32055Y-159585D01*
X32152Y-159527D01*
X32247Y-159465D01*
X32340Y-159400D01*
X32430Y-159332D01*
X32518Y-159261D01*
X32604Y-159186D01*
X32687Y-159109D01*
X32767Y-159029D01*
X32844Y-158946D01*
X32919Y-158860D01*
X32990Y-158772D01*
X33058Y-158682D01*
X33123Y-158589D01*
X33185Y-158494D01*
X33243Y-158397D01*
X33298Y-158298D01*
X33349Y-158197D01*
X33397Y-158094D01*
X33442Y-157990D01*
X33482Y-157884D01*
X33519Y-157777D01*
X33552Y-157669D01*
X33582Y-157559D01*
X33607Y-157449D01*
X33629Y-157338D01*
X33646Y-157226D01*
X33660Y-157113D01*
X33670Y-157000D01*
X33676Y-156887D01*
X33678Y-156774D01*
X33028Y-150932D02*
X33026Y-150831D01*
X33020Y-150731D01*
X33010Y-150631D01*
X32997Y-150531D01*
X32979Y-150432D01*
X32958Y-150333D01*
X32933Y-150236D01*
X32904Y-150139D01*
X32871Y-150044D01*
X32835Y-149950D01*
X32795Y-149858D01*
X32752Y-149767D01*
X32705Y-149678D01*
X32655Y-149591D01*
X32601Y-149505D01*
X32544Y-149422D01*
X32484Y-149342D01*
X32421Y-149263D01*
X32354Y-149187D01*
X32285Y-149114D01*
X32213Y-149044D01*
X32139Y-148976D01*
X32062Y-148911D01*
X31982Y-148850D01*
X31900Y-148791D01*
X31816Y-148736D01*
X31730Y-148684D01*
X31642Y-148635D01*
X31552Y-148590D01*
X31460Y-148548D01*
X31367Y-148510D01*
X31272Y-148476D01*
X31177Y-148445D01*
X31080Y-148418D01*
X30982Y-148395D01*
X30883Y-148375D01*
X30783Y-148360D01*
X30683Y-148348D01*
X30583Y-148340D01*
X30482Y-148336D01*
X30382Y-148336D01*
X30281Y-148340D01*
X30181Y-148348D01*
X30081Y-148360D01*
X29981Y-148375D01*
X29882Y-148395D01*
X29784Y-148418D01*
X29687Y-148445D01*
X29592Y-148476D01*
X29497Y-148510D01*
X29404Y-148548D01*
X29312Y-148590D01*
X29222Y-148635D01*
X29134Y-148684D01*
X29048Y-148736D01*
X28964Y-148791D01*
X28882Y-148850D01*
X28802Y-148911D01*
X28725Y-148976D01*
X28651Y-149044D01*
X28579Y-149114D01*
X28510Y-149187D01*
X28443Y-149263D01*
X28380Y-149342D01*
X28320Y-149422D01*
X28263Y-149505D01*
X28209Y-149591D01*
X28159Y-149678D01*
X28112Y-149767D01*
X28069Y-149858D01*
X28029Y-149950D01*
X27993Y-150044D01*
X27960Y-150139D01*
X27931Y-150236D01*
X27906Y-150333D01*
X27885Y-150432D01*
X27867Y-150531D01*
X27854Y-150631D01*
X27844Y-150731D01*
X27838Y-150831D01*
X27836Y-150932D01*
X27838Y-151033D01*
X27844Y-151133D01*
X27854Y-151233D01*
X27867Y-151333D01*
X27885Y-151432D01*
X27906Y-151531D01*
X27931Y-151628D01*
X27960Y-151725D01*
X27993Y-151820D01*
X28029Y-151914D01*
X28069Y-152006D01*
X28112Y-152097D01*
X28159Y-152186D01*
X28209Y-152273D01*
X28263Y-152359D01*
X28320Y-152442D01*
X28380Y-152522D01*
X28443Y-152601D01*
X28510Y-152677D01*
X28579Y-152750D01*
X28651Y-152820D01*
X28725Y-152888D01*
X28802Y-152953D01*
X28882Y-153014D01*
X28964Y-153073D01*
X29048Y-153128D01*
X29134Y-153180D01*
X29222Y-153229D01*
X29312Y-153274D01*
X29404Y-153316D01*
X29497Y-153354D01*
X29592Y-153388D01*
X29687Y-153419D01*
X29784Y-153446D01*
X29882Y-153469D01*
X29981Y-153489D01*
X30081Y-153504D01*
X30181Y-153516D01*
X30281Y-153524D01*
X30382Y-153528D01*
X30482Y-153528D01*
X30583Y-153524D01*
X30683Y-153516D01*
X30783Y-153504D01*
X30883Y-153489D01*
X30982Y-153469D01*
X31080Y-153446D01*
X31177Y-153419D01*
X31272Y-153388D01*
X31367Y-153354D01*
X31460Y-153316D01*
X31552Y-153274D01*
X31642Y-153229D01*
X31730Y-153180D01*
X31816Y-153128D01*
X31900Y-153073D01*
X31982Y-153014D01*
X32062Y-152953D01*
X32139Y-152888D01*
X32213Y-152820D01*
X32285Y-152750D01*
X32354Y-152677D01*
X32421Y-152601D01*
X32484Y-152522D01*
X32544Y-152442D01*
X32601Y-152359D01*
X32655Y-152273D01*
X32705Y-152186D01*
X32752Y-152097D01*
X32795Y-152006D01*
X32835Y-151914D01*
X32871Y-151820D01*
X32904Y-151725D01*
X32933Y-151628D01*
X32958Y-151531D01*
X32979Y-151432D01*
X32997Y-151333D01*
X33010Y-151233D01*
X33020Y-151133D01*
X33026Y-151033D01*
X33028Y-150932D01*
X172720Y-43180D02*
X172720Y-31496D01*
X172720Y-43180D02*
X167527Y-43180D01*
X160621Y-37987D02*
X156727Y-37987D01*
X160621Y-37987D02*
X160720Y-37985D01*
X160820Y-37979D01*
X160919Y-37970D01*
X161017Y-37957D01*
X161115Y-37940D01*
X161213Y-37919D01*
X161309Y-37894D01*
X161404Y-37866D01*
X161498Y-37834D01*
X161591Y-37799D01*
X161683Y-37760D01*
X161773Y-37717D01*
X161861Y-37672D01*
X161948Y-37622D01*
X162032Y-37570D01*
X162115Y-37514D01*
X162195Y-37456D01*
X162273Y-37394D01*
X162348Y-37329D01*
X162421Y-37261D01*
X162491Y-37191D01*
X162559Y-37118D01*
X162624Y-37043D01*
X162686Y-36965D01*
X162744Y-36885D01*
X162800Y-36802D01*
X162852Y-36718D01*
X162902Y-36631D01*
X162947Y-36543D01*
X162990Y-36453D01*
X163029Y-36361D01*
X163064Y-36268D01*
X163096Y-36174D01*
X163124Y-36079D01*
X163149Y-35983D01*
X163170Y-35885D01*
X163187Y-35787D01*
X163200Y-35689D01*
X163209Y-35590D01*
X163215Y-35490D01*
X163217Y-35391D01*
X163218Y-35391D02*
X163218Y-34742D01*
X163216Y-34629D01*
X163210Y-34516D01*
X163200Y-34403D01*
X163186Y-34290D01*
X163169Y-34178D01*
X163147Y-34067D01*
X163122Y-33957D01*
X163092Y-33847D01*
X163059Y-33739D01*
X163022Y-33632D01*
X162982Y-33526D01*
X162937Y-33422D01*
X162889Y-33319D01*
X162838Y-33218D01*
X162783Y-33119D01*
X162725Y-33022D01*
X162663Y-32927D01*
X162598Y-32834D01*
X162530Y-32744D01*
X162459Y-32656D01*
X162384Y-32570D01*
X162307Y-32487D01*
X162227Y-32407D01*
X162144Y-32330D01*
X162058Y-32255D01*
X161970Y-32184D01*
X161880Y-32116D01*
X161787Y-32051D01*
X161692Y-31989D01*
X161595Y-31931D01*
X161496Y-31876D01*
X161395Y-31825D01*
X161292Y-31777D01*
X161188Y-31732D01*
X161082Y-31692D01*
X160975Y-31655D01*
X160867Y-31622D01*
X160757Y-31592D01*
X160647Y-31567D01*
X160536Y-31545D01*
X160424Y-31528D01*
X160311Y-31514D01*
X160198Y-31504D01*
X160085Y-31498D01*
X159972Y-31496D01*
X159859Y-31498D01*
X159746Y-31504D01*
X159633Y-31514D01*
X159520Y-31528D01*
X159408Y-31545D01*
X159297Y-31567D01*
X159187Y-31592D01*
X159077Y-31622D01*
X158969Y-31655D01*
X158862Y-31692D01*
X158756Y-31732D01*
X158652Y-31777D01*
X158549Y-31825D01*
X158448Y-31876D01*
X158349Y-31931D01*
X158252Y-31989D01*
X158157Y-32051D01*
X158064Y-32116D01*
X157974Y-32184D01*
X157886Y-32255D01*
X157800Y-32330D01*
X157717Y-32407D01*
X157637Y-32487D01*
X157560Y-32570D01*
X157485Y-32656D01*
X157414Y-32744D01*
X157346Y-32834D01*
X157281Y-32927D01*
X157219Y-33022D01*
X157161Y-33119D01*
X157106Y-33218D01*
X157055Y-33319D01*
X157007Y-33422D01*
X156962Y-33526D01*
X156922Y-33632D01*
X156885Y-33739D01*
X156852Y-33847D01*
X156822Y-33957D01*
X156797Y-34067D01*
X156775Y-34178D01*
X156758Y-34290D01*
X156744Y-34403D01*
X156734Y-34516D01*
X156728Y-34629D01*
X156726Y-34742D01*
X156727Y-34742D02*
X156727Y-37987D01*
X156726Y-37987D02*
X156728Y-38130D01*
X156734Y-38273D01*
X156744Y-38416D01*
X156758Y-38558D01*
X156775Y-38700D01*
X156797Y-38842D01*
X156822Y-38983D01*
X156852Y-39123D01*
X156885Y-39262D01*
X156922Y-39400D01*
X156963Y-39537D01*
X157007Y-39673D01*
X157056Y-39808D01*
X157108Y-39941D01*
X157163Y-40073D01*
X157223Y-40203D01*
X157286Y-40332D01*
X157352Y-40459D01*
X157422Y-40583D01*
X157495Y-40706D01*
X157572Y-40827D01*
X157652Y-40946D01*
X157735Y-41062D01*
X157821Y-41177D01*
X157910Y-41288D01*
X158003Y-41398D01*
X158098Y-41504D01*
X158197Y-41608D01*
X158298Y-41709D01*
X158402Y-41808D01*
X158508Y-41903D01*
X158618Y-41996D01*
X158729Y-42085D01*
X158844Y-42171D01*
X158960Y-42254D01*
X159079Y-42334D01*
X159200Y-42411D01*
X159322Y-42484D01*
X159447Y-42554D01*
X159574Y-42620D01*
X159703Y-42683D01*
X159833Y-42743D01*
X159965Y-42798D01*
X160098Y-42850D01*
X160233Y-42899D01*
X160369Y-42943D01*
X160506Y-42984D01*
X160644Y-43021D01*
X160783Y-43054D01*
X160923Y-43084D01*
X161064Y-43109D01*
X161206Y-43131D01*
X161348Y-43148D01*
X161490Y-43162D01*
X161633Y-43172D01*
X161776Y-43178D01*
X161919Y-43180D01*
X-31496Y161036D02*
X-31496Y172720D01*
X-31496Y161036D02*
X-36689Y161036D01*
X-40998Y170124D02*
X-44244Y172720D01*
X-44244Y161036D01*
X-40998Y161036D02*
X-47490Y161036D01*
X-52429Y166878D02*
X-52432Y167108D01*
X-52440Y167338D01*
X-52454Y167567D01*
X-52473Y167796D01*
X-52498Y168025D01*
X-52528Y168252D01*
X-52563Y168480D01*
X-52604Y168706D01*
X-52650Y168931D01*
X-52702Y169155D01*
X-52759Y169377D01*
X-52821Y169599D01*
X-52889Y169818D01*
X-52962Y170036D01*
X-53040Y170253D01*
X-53123Y170467D01*
X-53211Y170679D01*
X-53304Y170889D01*
X-53403Y171097D01*
X-53402Y171097D02*
X-53435Y171187D01*
X-53471Y171276D01*
X-53511Y171364D01*
X-53555Y171449D01*
X-53602Y171533D01*
X-53652Y171615D01*
X-53706Y171695D01*
X-53762Y171772D01*
X-53822Y171848D01*
X-53885Y171921D01*
X-53950Y171991D01*
X-54019Y172059D01*
X-54090Y172123D01*
X-54163Y172185D01*
X-54239Y172244D01*
X-54317Y172300D01*
X-54398Y172353D01*
X-54480Y172402D01*
X-54564Y172448D01*
X-54651Y172491D01*
X-54738Y172530D01*
X-54828Y172566D01*
X-54918Y172598D01*
X-55010Y172626D01*
X-55103Y172651D01*
X-55197Y172672D01*
X-55291Y172689D01*
X-55386Y172703D01*
X-55482Y172712D01*
X-55578Y172718D01*
X-55674Y172720D01*
X-55770Y172718D01*
X-55866Y172712D01*
X-55962Y172703D01*
X-56057Y172689D01*
X-56151Y172672D01*
X-56245Y172651D01*
X-56338Y172626D01*
X-56430Y172598D01*
X-56520Y172566D01*
X-56610Y172530D01*
X-56697Y172491D01*
X-56784Y172448D01*
X-56868Y172402D01*
X-56950Y172353D01*
X-57031Y172300D01*
X-57109Y172244D01*
X-57185Y172185D01*
X-57258Y172123D01*
X-57329Y172059D01*
X-57398Y171991D01*
X-57463Y171921D01*
X-57526Y171848D01*
X-57586Y171772D01*
X-57642Y171695D01*
X-57696Y171615D01*
X-57746Y171533D01*
X-57793Y171449D01*
X-57837Y171364D01*
X-57877Y171276D01*
X-57913Y171187D01*
X-57946Y171097D01*
X-58045Y170890D01*
X-58138Y170680D01*
X-58226Y170467D01*
X-58309Y170253D01*
X-58387Y170037D01*
X-58460Y169819D01*
X-58528Y169599D01*
X-58590Y169378D01*
X-58647Y169155D01*
X-58699Y168931D01*
X-58745Y168706D01*
X-58786Y168480D01*
X-58821Y168253D01*
X-58851Y168025D01*
X-58876Y167796D01*
X-58895Y167567D01*
X-58909Y167338D01*
X-58917Y167108D01*
X-58920Y166878D01*
X-52428Y166878D02*
X-52431Y166648D01*
X-52439Y166418D01*
X-52453Y166189D01*
X-52472Y165960D01*
X-52497Y165731D01*
X-52527Y165503D01*
X-52562Y165276D01*
X-52603Y165050D01*
X-52649Y164825D01*
X-52701Y164601D01*
X-52758Y164378D01*
X-52820Y164157D01*
X-52888Y163937D01*
X-52961Y163719D01*
X-53039Y163503D01*
X-53122Y163289D01*
X-53210Y163077D01*
X-53303Y162866D01*
X-53402Y162659D01*
X-53435Y162569D01*
X-53471Y162480D01*
X-53512Y162392D01*
X-53555Y162307D01*
X-53602Y162223D01*
X-53652Y162141D01*
X-53706Y162061D01*
X-53762Y161984D01*
X-53822Y161908D01*
X-53885Y161835D01*
X-53950Y161765D01*
X-54019Y161697D01*
X-54090Y161633D01*
X-54163Y161571D01*
X-54239Y161512D01*
X-54317Y161456D01*
X-54398Y161403D01*
X-54480Y161354D01*
X-54564Y161308D01*
X-54651Y161265D01*
X-54738Y161226D01*
X-54828Y161190D01*
X-54918Y161158D01*
X-55010Y161130D01*
X-55103Y161105D01*
X-55197Y161084D01*
X-55291Y161067D01*
X-55386Y161053D01*
X-55482Y161044D01*
X-55578Y161038D01*
X-55674Y161036D01*
X-57946Y162659D02*
X-58045Y162866D01*
X-58138Y163077D01*
X-58226Y163289D01*
X-58309Y163503D01*
X-58387Y163719D01*
X-58460Y163937D01*
X-58528Y164157D01*
X-58590Y164378D01*
X-58647Y164601D01*
X-58699Y164825D01*
X-58745Y165050D01*
X-58786Y165276D01*
X-58821Y165503D01*
X-58851Y165731D01*
X-58876Y165960D01*
X-58895Y166189D01*
X-58909Y166418D01*
X-58917Y166648D01*
X-58920Y166878D01*
X-57946Y162659D02*
X-57913Y162569D01*
X-57877Y162480D01*
X-57837Y162392D01*
X-57793Y162307D01*
X-57746Y162223D01*
X-57696Y162141D01*
X-57642Y162061D01*
X-57586Y161984D01*
X-57526Y161908D01*
X-57463Y161835D01*
X-57398Y161765D01*
X-57329Y161697D01*
X-57258Y161633D01*
X-57185Y161571D01*
X-57109Y161512D01*
X-57031Y161456D01*
X-56950Y161403D01*
X-56868Y161354D01*
X-56784Y161308D01*
X-56697Y161265D01*
X-56610Y161226D01*
X-56520Y161190D01*
X-56430Y161158D01*
X-56338Y161130D01*
X-56245Y161105D01*
X-56151Y161084D01*
X-56057Y161067D01*
X-55962Y161053D01*
X-55866Y161044D01*
X-55770Y161038D01*
X-55674Y161036D01*
X-53077Y163632D02*
X-58270Y170124D01*
X-31087Y75610D02*
X-31087Y63926D01*
X-36280Y63926D01*
X-40589Y73014D02*
X-43835Y75610D01*
X-43835Y63926D01*
X-47080Y63926D02*
X-40589Y63926D01*
X-52019Y73014D02*
X-55265Y75610D01*
X-55265Y63926D01*
X-58510Y63926D02*
X-52019Y63926D01*
X77315Y-22270D02*
X77315Y-33954D01*
X72122Y-33954D01*
X67812Y-24867D02*
X64567Y-22270D01*
X64567Y-33954D01*
X67812Y-33954D02*
X61321Y-33954D01*
X49891Y-25191D02*
X49893Y-25084D01*
X49899Y-24978D01*
X49909Y-24872D01*
X49922Y-24766D01*
X49940Y-24660D01*
X49961Y-24556D01*
X49986Y-24452D01*
X50015Y-24349D01*
X50047Y-24248D01*
X50084Y-24148D01*
X50124Y-24049D01*
X50167Y-23951D01*
X50214Y-23855D01*
X50265Y-23761D01*
X50319Y-23669D01*
X50376Y-23579D01*
X50436Y-23491D01*
X50500Y-23406D01*
X50567Y-23323D01*
X50637Y-23242D01*
X50709Y-23164D01*
X50785Y-23088D01*
X50863Y-23016D01*
X50944Y-22946D01*
X51027Y-22879D01*
X51112Y-22815D01*
X51200Y-22755D01*
X51290Y-22698D01*
X51382Y-22644D01*
X51476Y-22593D01*
X51572Y-22546D01*
X51670Y-22503D01*
X51769Y-22463D01*
X51869Y-22426D01*
X51970Y-22394D01*
X52073Y-22365D01*
X52177Y-22340D01*
X52281Y-22319D01*
X52387Y-22301D01*
X52493Y-22288D01*
X52599Y-22278D01*
X52705Y-22272D01*
X52812Y-22270D01*
X52933Y-22272D01*
X53054Y-22278D01*
X53174Y-22288D01*
X53295Y-22301D01*
X53414Y-22319D01*
X53534Y-22340D01*
X53652Y-22365D01*
X53769Y-22394D01*
X53886Y-22427D01*
X54001Y-22463D01*
X54115Y-22504D01*
X54228Y-22547D01*
X54340Y-22595D01*
X54449Y-22646D01*
X54557Y-22701D01*
X54664Y-22759D01*
X54768Y-22820D01*
X54870Y-22885D01*
X54970Y-22953D01*
X55068Y-23024D01*
X55164Y-23098D01*
X55257Y-23175D01*
X55347Y-23256D01*
X55435Y-23339D01*
X55520Y-23425D01*
X55603Y-23514D01*
X55682Y-23605D01*
X55759Y-23699D01*
X55832Y-23795D01*
X55902Y-23893D01*
X55969Y-23994D01*
X56033Y-24097D01*
X56094Y-24202D01*
X56151Y-24309D01*
X56204Y-24417D01*
X56254Y-24527D01*
X56301Y-24639D01*
X56343Y-24752D01*
X56382Y-24867D01*
X50866Y-27463D02*
X50787Y-27385D01*
X50711Y-27305D01*
X50638Y-27222D01*
X50568Y-27136D01*
X50501Y-27049D01*
X50437Y-26958D01*
X50377Y-26866D01*
X50319Y-26772D01*
X50265Y-26675D01*
X50215Y-26577D01*
X50168Y-26477D01*
X50124Y-26376D01*
X50084Y-26273D01*
X50048Y-26168D01*
X50016Y-26063D01*
X49987Y-25956D01*
X49962Y-25849D01*
X49940Y-25740D01*
X49923Y-25631D01*
X49909Y-25522D01*
X49900Y-25412D01*
X49894Y-25301D01*
X49892Y-25191D01*
X50865Y-27463D02*
X56382Y-33954D01*
X49891Y-33954D01*
M02*
