G04 EAGLE Gerber RS-274X export*
G75*
%MOMM*%
%FSLAX34Y34*%
%LPD*%
%IN*%
%IPPOS*%
%AMOC8*
5,1,8,0,0,1.08239X$1,22.5*%
G01*
%ADD10C,0.001000*%
%ADD11C,0.101600*%


D10*
X-175000Y350000D02*
X-350000Y210000D01*
X-350000Y-175000D01*
X-210000Y-350000D01*
X175000Y-350000D01*
X350000Y-210000D01*
X350000Y175000D01*
X210000Y350000D01*
X-175000Y350000D01*
D11*
X-113129Y-25908D02*
X-113129Y-37592D01*
X-113129Y-25908D02*
X-109883Y-25908D01*
X-109770Y-25910D01*
X-109657Y-25916D01*
X-109544Y-25926D01*
X-109431Y-25940D01*
X-109319Y-25957D01*
X-109208Y-25979D01*
X-109098Y-26004D01*
X-108988Y-26034D01*
X-108880Y-26067D01*
X-108773Y-26104D01*
X-108667Y-26144D01*
X-108563Y-26189D01*
X-108460Y-26237D01*
X-108359Y-26288D01*
X-108260Y-26343D01*
X-108163Y-26401D01*
X-108068Y-26463D01*
X-107975Y-26528D01*
X-107885Y-26596D01*
X-107797Y-26667D01*
X-107711Y-26742D01*
X-107628Y-26819D01*
X-107548Y-26899D01*
X-107471Y-26982D01*
X-107396Y-27068D01*
X-107325Y-27156D01*
X-107257Y-27246D01*
X-107192Y-27339D01*
X-107130Y-27434D01*
X-107072Y-27531D01*
X-107017Y-27630D01*
X-106966Y-27731D01*
X-106918Y-27834D01*
X-106873Y-27938D01*
X-106833Y-28044D01*
X-106796Y-28151D01*
X-106763Y-28259D01*
X-106733Y-28369D01*
X-106708Y-28479D01*
X-106686Y-28590D01*
X-106669Y-28702D01*
X-106655Y-28815D01*
X-106645Y-28928D01*
X-106639Y-29041D01*
X-106637Y-29154D01*
X-106639Y-29267D01*
X-106645Y-29380D01*
X-106655Y-29493D01*
X-106669Y-29606D01*
X-106686Y-29718D01*
X-106708Y-29829D01*
X-106733Y-29939D01*
X-106763Y-30049D01*
X-106796Y-30157D01*
X-106833Y-30264D01*
X-106873Y-30370D01*
X-106918Y-30474D01*
X-106966Y-30577D01*
X-107017Y-30678D01*
X-107072Y-30777D01*
X-107130Y-30874D01*
X-107192Y-30969D01*
X-107257Y-31062D01*
X-107325Y-31152D01*
X-107396Y-31240D01*
X-107471Y-31326D01*
X-107548Y-31409D01*
X-107628Y-31489D01*
X-107711Y-31566D01*
X-107797Y-31641D01*
X-107885Y-31712D01*
X-107975Y-31780D01*
X-108068Y-31845D01*
X-108163Y-31907D01*
X-108260Y-31965D01*
X-108359Y-32020D01*
X-108460Y-32071D01*
X-108563Y-32119D01*
X-108667Y-32164D01*
X-108773Y-32204D01*
X-108880Y-32241D01*
X-108988Y-32274D01*
X-109098Y-32304D01*
X-109208Y-32329D01*
X-109319Y-32351D01*
X-109431Y-32368D01*
X-109544Y-32382D01*
X-109657Y-32392D01*
X-109770Y-32398D01*
X-109883Y-32400D01*
X-109883Y-32399D02*
X-113129Y-32399D01*
X-102249Y-28504D02*
X-99004Y-25908D01*
X-99004Y-37592D01*
X-102249Y-37592D02*
X-95758Y-37592D01*
X-50292Y-95758D02*
X-50292Y-107442D01*
X-50292Y-95758D02*
X-47046Y-95758D01*
X-46933Y-95760D01*
X-46820Y-95766D01*
X-46707Y-95776D01*
X-46594Y-95790D01*
X-46482Y-95807D01*
X-46371Y-95829D01*
X-46261Y-95854D01*
X-46151Y-95884D01*
X-46043Y-95917D01*
X-45936Y-95954D01*
X-45830Y-95994D01*
X-45726Y-96039D01*
X-45623Y-96087D01*
X-45522Y-96138D01*
X-45423Y-96193D01*
X-45326Y-96251D01*
X-45231Y-96313D01*
X-45138Y-96378D01*
X-45048Y-96446D01*
X-44960Y-96517D01*
X-44874Y-96592D01*
X-44791Y-96669D01*
X-44711Y-96749D01*
X-44634Y-96832D01*
X-44559Y-96918D01*
X-44488Y-97006D01*
X-44420Y-97096D01*
X-44355Y-97189D01*
X-44293Y-97284D01*
X-44235Y-97381D01*
X-44180Y-97480D01*
X-44129Y-97581D01*
X-44081Y-97684D01*
X-44036Y-97788D01*
X-43996Y-97894D01*
X-43959Y-98001D01*
X-43926Y-98109D01*
X-43896Y-98219D01*
X-43871Y-98329D01*
X-43849Y-98440D01*
X-43832Y-98552D01*
X-43818Y-98665D01*
X-43808Y-98778D01*
X-43802Y-98891D01*
X-43800Y-99004D01*
X-43802Y-99117D01*
X-43808Y-99230D01*
X-43818Y-99343D01*
X-43832Y-99456D01*
X-43849Y-99568D01*
X-43871Y-99679D01*
X-43896Y-99789D01*
X-43926Y-99899D01*
X-43959Y-100007D01*
X-43996Y-100114D01*
X-44036Y-100220D01*
X-44081Y-100324D01*
X-44129Y-100427D01*
X-44180Y-100528D01*
X-44235Y-100627D01*
X-44293Y-100724D01*
X-44355Y-100819D01*
X-44420Y-100912D01*
X-44488Y-101002D01*
X-44559Y-101090D01*
X-44634Y-101176D01*
X-44711Y-101259D01*
X-44791Y-101339D01*
X-44874Y-101416D01*
X-44960Y-101491D01*
X-45048Y-101562D01*
X-45138Y-101630D01*
X-45231Y-101695D01*
X-45326Y-101757D01*
X-45423Y-101815D01*
X-45522Y-101870D01*
X-45623Y-101921D01*
X-45726Y-101969D01*
X-45830Y-102014D01*
X-45936Y-102054D01*
X-46043Y-102091D01*
X-46151Y-102124D01*
X-46261Y-102154D01*
X-46371Y-102179D01*
X-46482Y-102201D01*
X-46594Y-102218D01*
X-46707Y-102232D01*
X-46820Y-102242D01*
X-46933Y-102248D01*
X-47046Y-102250D01*
X-47046Y-102249D02*
X-50292Y-102249D01*
X-35842Y-95758D02*
X-35735Y-95760D01*
X-35629Y-95766D01*
X-35523Y-95776D01*
X-35417Y-95789D01*
X-35311Y-95807D01*
X-35207Y-95828D01*
X-35103Y-95853D01*
X-35000Y-95882D01*
X-34899Y-95914D01*
X-34799Y-95951D01*
X-34700Y-95991D01*
X-34602Y-96034D01*
X-34506Y-96081D01*
X-34412Y-96132D01*
X-34320Y-96186D01*
X-34230Y-96243D01*
X-34142Y-96303D01*
X-34057Y-96367D01*
X-33974Y-96434D01*
X-33893Y-96504D01*
X-33815Y-96576D01*
X-33739Y-96652D01*
X-33667Y-96730D01*
X-33597Y-96811D01*
X-33530Y-96894D01*
X-33466Y-96979D01*
X-33406Y-97067D01*
X-33349Y-97157D01*
X-33295Y-97249D01*
X-33244Y-97343D01*
X-33197Y-97439D01*
X-33154Y-97537D01*
X-33114Y-97636D01*
X-33077Y-97736D01*
X-33045Y-97837D01*
X-33016Y-97940D01*
X-32991Y-98044D01*
X-32970Y-98148D01*
X-32952Y-98254D01*
X-32939Y-98360D01*
X-32929Y-98466D01*
X-32923Y-98572D01*
X-32921Y-98679D01*
X-35842Y-95758D02*
X-35963Y-95760D01*
X-36084Y-95766D01*
X-36204Y-95776D01*
X-36325Y-95789D01*
X-36444Y-95807D01*
X-36564Y-95828D01*
X-36682Y-95853D01*
X-36799Y-95882D01*
X-36916Y-95915D01*
X-37031Y-95951D01*
X-37145Y-95992D01*
X-37258Y-96035D01*
X-37370Y-96083D01*
X-37479Y-96134D01*
X-37587Y-96189D01*
X-37694Y-96247D01*
X-37798Y-96308D01*
X-37900Y-96373D01*
X-38000Y-96441D01*
X-38098Y-96512D01*
X-38194Y-96586D01*
X-38287Y-96663D01*
X-38377Y-96744D01*
X-38465Y-96827D01*
X-38550Y-96913D01*
X-38633Y-97002D01*
X-38712Y-97093D01*
X-38789Y-97187D01*
X-38862Y-97283D01*
X-38932Y-97381D01*
X-38999Y-97482D01*
X-39063Y-97585D01*
X-39124Y-97690D01*
X-39181Y-97797D01*
X-39234Y-97905D01*
X-39284Y-98015D01*
X-39331Y-98127D01*
X-39373Y-98240D01*
X-39412Y-98355D01*
X-33896Y-100951D02*
X-33817Y-100873D01*
X-33741Y-100793D01*
X-33668Y-100710D01*
X-33598Y-100624D01*
X-33531Y-100537D01*
X-33467Y-100446D01*
X-33407Y-100354D01*
X-33349Y-100260D01*
X-33295Y-100163D01*
X-33245Y-100065D01*
X-33198Y-99965D01*
X-33154Y-99864D01*
X-33114Y-99761D01*
X-33078Y-99656D01*
X-33046Y-99551D01*
X-33017Y-99444D01*
X-32992Y-99337D01*
X-32970Y-99228D01*
X-32953Y-99119D01*
X-32939Y-99010D01*
X-32930Y-98900D01*
X-32924Y-98789D01*
X-32922Y-98679D01*
X-33895Y-100951D02*
X-39412Y-107442D01*
X-32921Y-107442D01*
X95758Y25908D02*
X95758Y37592D01*
X99004Y37592D01*
X99117Y37590D01*
X99230Y37584D01*
X99343Y37574D01*
X99456Y37560D01*
X99568Y37543D01*
X99679Y37521D01*
X99789Y37496D01*
X99899Y37466D01*
X100007Y37433D01*
X100114Y37396D01*
X100220Y37356D01*
X100324Y37311D01*
X100427Y37263D01*
X100528Y37212D01*
X100627Y37157D01*
X100724Y37099D01*
X100819Y37037D01*
X100912Y36972D01*
X101002Y36904D01*
X101090Y36833D01*
X101176Y36758D01*
X101259Y36681D01*
X101339Y36601D01*
X101416Y36518D01*
X101491Y36432D01*
X101562Y36344D01*
X101630Y36254D01*
X101695Y36161D01*
X101757Y36066D01*
X101815Y35969D01*
X101870Y35870D01*
X101921Y35769D01*
X101969Y35666D01*
X102014Y35562D01*
X102054Y35456D01*
X102091Y35349D01*
X102124Y35241D01*
X102154Y35131D01*
X102179Y35021D01*
X102201Y34910D01*
X102218Y34798D01*
X102232Y34685D01*
X102242Y34572D01*
X102248Y34459D01*
X102250Y34346D01*
X102248Y34233D01*
X102242Y34120D01*
X102232Y34007D01*
X102218Y33894D01*
X102201Y33782D01*
X102179Y33671D01*
X102154Y33561D01*
X102124Y33451D01*
X102091Y33343D01*
X102054Y33236D01*
X102014Y33130D01*
X101969Y33026D01*
X101921Y32923D01*
X101870Y32822D01*
X101815Y32723D01*
X101757Y32626D01*
X101695Y32531D01*
X101630Y32438D01*
X101562Y32348D01*
X101491Y32260D01*
X101416Y32174D01*
X101339Y32091D01*
X101259Y32011D01*
X101176Y31934D01*
X101090Y31859D01*
X101002Y31788D01*
X100912Y31720D01*
X100819Y31655D01*
X100724Y31593D01*
X100627Y31535D01*
X100528Y31480D01*
X100427Y31429D01*
X100324Y31381D01*
X100220Y31336D01*
X100114Y31296D01*
X100007Y31259D01*
X99899Y31226D01*
X99789Y31196D01*
X99679Y31171D01*
X99568Y31149D01*
X99456Y31132D01*
X99343Y31118D01*
X99230Y31108D01*
X99117Y31102D01*
X99004Y31100D01*
X99004Y31101D02*
X95758Y31101D01*
X106638Y25908D02*
X109883Y25908D01*
X109996Y25910D01*
X110109Y25916D01*
X110222Y25926D01*
X110335Y25940D01*
X110447Y25957D01*
X110558Y25979D01*
X110668Y26004D01*
X110778Y26034D01*
X110886Y26067D01*
X110993Y26104D01*
X111099Y26144D01*
X111203Y26189D01*
X111306Y26237D01*
X111407Y26288D01*
X111506Y26343D01*
X111603Y26401D01*
X111698Y26463D01*
X111791Y26528D01*
X111881Y26596D01*
X111969Y26667D01*
X112055Y26742D01*
X112138Y26819D01*
X112218Y26899D01*
X112295Y26982D01*
X112370Y27068D01*
X112441Y27156D01*
X112509Y27246D01*
X112574Y27339D01*
X112636Y27434D01*
X112694Y27531D01*
X112749Y27630D01*
X112800Y27731D01*
X112848Y27834D01*
X112893Y27938D01*
X112933Y28044D01*
X112970Y28151D01*
X113003Y28259D01*
X113033Y28369D01*
X113058Y28479D01*
X113080Y28590D01*
X113097Y28702D01*
X113111Y28815D01*
X113121Y28928D01*
X113127Y29041D01*
X113129Y29154D01*
X113127Y29267D01*
X113121Y29380D01*
X113111Y29493D01*
X113097Y29606D01*
X113080Y29718D01*
X113058Y29829D01*
X113033Y29939D01*
X113003Y30049D01*
X112970Y30157D01*
X112933Y30264D01*
X112893Y30370D01*
X112848Y30474D01*
X112800Y30577D01*
X112749Y30678D01*
X112694Y30777D01*
X112636Y30874D01*
X112574Y30969D01*
X112509Y31062D01*
X112441Y31152D01*
X112370Y31240D01*
X112295Y31326D01*
X112218Y31409D01*
X112138Y31489D01*
X112055Y31566D01*
X111969Y31641D01*
X111881Y31712D01*
X111791Y31780D01*
X111698Y31845D01*
X111603Y31907D01*
X111506Y31965D01*
X111407Y32020D01*
X111306Y32071D01*
X111203Y32119D01*
X111099Y32164D01*
X110993Y32204D01*
X110886Y32241D01*
X110778Y32274D01*
X110668Y32304D01*
X110558Y32329D01*
X110447Y32351D01*
X110335Y32368D01*
X110222Y32382D01*
X110109Y32392D01*
X109996Y32398D01*
X109883Y32400D01*
X110532Y37592D02*
X106638Y37592D01*
X110532Y37592D02*
X110633Y37590D01*
X110733Y37584D01*
X110833Y37574D01*
X110933Y37561D01*
X111032Y37543D01*
X111131Y37522D01*
X111228Y37497D01*
X111325Y37468D01*
X111420Y37435D01*
X111514Y37399D01*
X111606Y37359D01*
X111697Y37316D01*
X111786Y37269D01*
X111873Y37219D01*
X111959Y37165D01*
X112042Y37108D01*
X112122Y37048D01*
X112201Y36985D01*
X112277Y36918D01*
X112350Y36849D01*
X112420Y36777D01*
X112488Y36703D01*
X112553Y36626D01*
X112614Y36546D01*
X112673Y36464D01*
X112728Y36380D01*
X112780Y36294D01*
X112829Y36206D01*
X112874Y36116D01*
X112916Y36024D01*
X112954Y35931D01*
X112988Y35836D01*
X113019Y35741D01*
X113046Y35644D01*
X113069Y35546D01*
X113089Y35447D01*
X113104Y35347D01*
X113116Y35247D01*
X113124Y35147D01*
X113128Y35046D01*
X113128Y34946D01*
X113124Y34845D01*
X113116Y34745D01*
X113104Y34645D01*
X113089Y34545D01*
X113069Y34446D01*
X113046Y34348D01*
X113019Y34251D01*
X112988Y34156D01*
X112954Y34061D01*
X112916Y33968D01*
X112874Y33876D01*
X112829Y33786D01*
X112780Y33698D01*
X112728Y33612D01*
X112673Y33528D01*
X112614Y33446D01*
X112553Y33366D01*
X112488Y33289D01*
X112420Y33215D01*
X112350Y33143D01*
X112277Y33074D01*
X112201Y33007D01*
X112122Y32944D01*
X112042Y32884D01*
X111959Y32827D01*
X111873Y32773D01*
X111786Y32723D01*
X111697Y32676D01*
X111606Y32633D01*
X111514Y32593D01*
X111420Y32557D01*
X111325Y32524D01*
X111228Y32495D01*
X111131Y32470D01*
X111032Y32449D01*
X110933Y32431D01*
X110833Y32418D01*
X110733Y32408D01*
X110633Y32402D01*
X110532Y32400D01*
X110532Y32399D02*
X107936Y32399D01*
X32921Y95758D02*
X32921Y107442D01*
X36167Y107442D01*
X36280Y107440D01*
X36393Y107434D01*
X36506Y107424D01*
X36619Y107410D01*
X36731Y107393D01*
X36842Y107371D01*
X36952Y107346D01*
X37062Y107316D01*
X37170Y107283D01*
X37277Y107246D01*
X37383Y107206D01*
X37487Y107161D01*
X37590Y107113D01*
X37691Y107062D01*
X37790Y107007D01*
X37887Y106949D01*
X37982Y106887D01*
X38075Y106822D01*
X38165Y106754D01*
X38253Y106683D01*
X38339Y106608D01*
X38422Y106531D01*
X38502Y106451D01*
X38579Y106368D01*
X38654Y106282D01*
X38725Y106194D01*
X38793Y106104D01*
X38858Y106011D01*
X38920Y105916D01*
X38978Y105819D01*
X39033Y105720D01*
X39084Y105619D01*
X39132Y105516D01*
X39177Y105412D01*
X39217Y105306D01*
X39254Y105199D01*
X39287Y105091D01*
X39317Y104981D01*
X39342Y104871D01*
X39364Y104760D01*
X39381Y104648D01*
X39395Y104535D01*
X39405Y104422D01*
X39411Y104309D01*
X39413Y104196D01*
X39411Y104083D01*
X39405Y103970D01*
X39395Y103857D01*
X39381Y103744D01*
X39364Y103632D01*
X39342Y103521D01*
X39317Y103411D01*
X39287Y103301D01*
X39254Y103193D01*
X39217Y103086D01*
X39177Y102980D01*
X39132Y102876D01*
X39084Y102773D01*
X39033Y102672D01*
X38978Y102573D01*
X38920Y102476D01*
X38858Y102381D01*
X38793Y102288D01*
X38725Y102198D01*
X38654Y102110D01*
X38579Y102024D01*
X38502Y101941D01*
X38422Y101861D01*
X38339Y101784D01*
X38253Y101709D01*
X38165Y101638D01*
X38075Y101570D01*
X37982Y101505D01*
X37887Y101443D01*
X37790Y101385D01*
X37691Y101330D01*
X37590Y101279D01*
X37487Y101231D01*
X37383Y101186D01*
X37277Y101146D01*
X37170Y101109D01*
X37062Y101076D01*
X36952Y101046D01*
X36842Y101021D01*
X36731Y100999D01*
X36619Y100982D01*
X36506Y100968D01*
X36393Y100958D01*
X36280Y100952D01*
X36167Y100950D01*
X36167Y100951D02*
X32921Y100951D01*
X43801Y98354D02*
X46397Y107442D01*
X43801Y98354D02*
X50292Y98354D01*
X48345Y100951D02*
X48345Y95758D01*
X-134460Y61181D02*
X-134460Y49497D01*
X-134460Y61181D02*
X-131214Y61181D01*
X-131101Y61179D01*
X-130988Y61173D01*
X-130875Y61163D01*
X-130762Y61149D01*
X-130650Y61132D01*
X-130539Y61110D01*
X-130429Y61085D01*
X-130319Y61055D01*
X-130211Y61022D01*
X-130104Y60985D01*
X-129998Y60945D01*
X-129894Y60900D01*
X-129791Y60852D01*
X-129690Y60801D01*
X-129591Y60746D01*
X-129494Y60688D01*
X-129399Y60626D01*
X-129306Y60561D01*
X-129216Y60493D01*
X-129128Y60422D01*
X-129042Y60347D01*
X-128959Y60270D01*
X-128879Y60190D01*
X-128802Y60107D01*
X-128727Y60021D01*
X-128656Y59933D01*
X-128588Y59843D01*
X-128523Y59750D01*
X-128461Y59655D01*
X-128403Y59558D01*
X-128348Y59459D01*
X-128297Y59358D01*
X-128249Y59255D01*
X-128204Y59151D01*
X-128164Y59045D01*
X-128127Y58938D01*
X-128094Y58830D01*
X-128064Y58720D01*
X-128039Y58610D01*
X-128017Y58499D01*
X-128000Y58387D01*
X-127986Y58274D01*
X-127976Y58161D01*
X-127970Y58048D01*
X-127968Y57935D01*
X-127969Y57935D02*
X-127969Y52743D01*
X-127968Y52743D02*
X-127970Y52630D01*
X-127976Y52517D01*
X-127986Y52404D01*
X-128000Y52291D01*
X-128017Y52179D01*
X-128039Y52068D01*
X-128064Y51958D01*
X-128094Y51848D01*
X-128127Y51740D01*
X-128164Y51633D01*
X-128204Y51527D01*
X-128249Y51423D01*
X-128297Y51320D01*
X-128348Y51219D01*
X-128403Y51120D01*
X-128461Y51023D01*
X-128523Y50928D01*
X-128588Y50835D01*
X-128656Y50745D01*
X-128727Y50657D01*
X-128802Y50571D01*
X-128879Y50488D01*
X-128959Y50408D01*
X-129042Y50331D01*
X-129128Y50256D01*
X-129216Y50185D01*
X-129306Y50117D01*
X-129399Y50052D01*
X-129494Y49990D01*
X-129591Y49932D01*
X-129690Y49877D01*
X-129791Y49826D01*
X-129894Y49778D01*
X-129998Y49733D01*
X-130104Y49693D01*
X-130211Y49656D01*
X-130319Y49623D01*
X-130429Y49593D01*
X-130539Y49568D01*
X-130650Y49546D01*
X-130762Y49529D01*
X-130875Y49515D01*
X-130988Y49505D01*
X-131101Y49499D01*
X-131214Y49497D01*
X-134460Y49497D01*
X-122649Y58585D02*
X-119404Y61181D01*
X-119404Y49497D01*
X-122649Y49497D02*
X-116158Y49497D01*
X60979Y-122776D02*
X60979Y-134460D01*
X60979Y-122776D02*
X64224Y-122776D01*
X64337Y-122778D01*
X64450Y-122784D01*
X64563Y-122794D01*
X64676Y-122808D01*
X64788Y-122825D01*
X64899Y-122847D01*
X65009Y-122872D01*
X65119Y-122902D01*
X65227Y-122935D01*
X65334Y-122972D01*
X65440Y-123012D01*
X65544Y-123057D01*
X65647Y-123105D01*
X65748Y-123156D01*
X65847Y-123211D01*
X65944Y-123269D01*
X66039Y-123331D01*
X66132Y-123396D01*
X66222Y-123464D01*
X66310Y-123535D01*
X66396Y-123610D01*
X66479Y-123687D01*
X66559Y-123767D01*
X66636Y-123850D01*
X66711Y-123936D01*
X66782Y-124024D01*
X66850Y-124114D01*
X66915Y-124207D01*
X66977Y-124302D01*
X67035Y-124399D01*
X67090Y-124498D01*
X67141Y-124599D01*
X67189Y-124702D01*
X67234Y-124806D01*
X67274Y-124912D01*
X67311Y-125019D01*
X67344Y-125127D01*
X67374Y-125237D01*
X67399Y-125347D01*
X67421Y-125458D01*
X67438Y-125570D01*
X67452Y-125683D01*
X67462Y-125796D01*
X67468Y-125909D01*
X67470Y-126022D01*
X67470Y-131214D01*
X67471Y-131214D02*
X67469Y-131327D01*
X67463Y-131440D01*
X67453Y-131553D01*
X67439Y-131666D01*
X67422Y-131778D01*
X67400Y-131889D01*
X67375Y-131999D01*
X67345Y-132109D01*
X67312Y-132217D01*
X67275Y-132324D01*
X67235Y-132430D01*
X67190Y-132534D01*
X67142Y-132637D01*
X67091Y-132738D01*
X67036Y-132837D01*
X66978Y-132934D01*
X66916Y-133029D01*
X66851Y-133122D01*
X66783Y-133212D01*
X66712Y-133300D01*
X66637Y-133386D01*
X66560Y-133469D01*
X66480Y-133549D01*
X66397Y-133626D01*
X66311Y-133701D01*
X66223Y-133772D01*
X66133Y-133840D01*
X66040Y-133905D01*
X65945Y-133967D01*
X65848Y-134025D01*
X65749Y-134080D01*
X65648Y-134131D01*
X65545Y-134179D01*
X65441Y-134224D01*
X65335Y-134264D01*
X65228Y-134301D01*
X65120Y-134334D01*
X65010Y-134364D01*
X64900Y-134389D01*
X64789Y-134411D01*
X64677Y-134428D01*
X64564Y-134442D01*
X64451Y-134452D01*
X64338Y-134458D01*
X64225Y-134460D01*
X64224Y-134460D02*
X60979Y-134460D01*
X76360Y-122776D02*
X76467Y-122778D01*
X76573Y-122784D01*
X76679Y-122794D01*
X76785Y-122807D01*
X76891Y-122825D01*
X76995Y-122846D01*
X77099Y-122871D01*
X77202Y-122900D01*
X77303Y-122932D01*
X77403Y-122969D01*
X77502Y-123009D01*
X77600Y-123052D01*
X77696Y-123099D01*
X77790Y-123150D01*
X77882Y-123204D01*
X77972Y-123261D01*
X78060Y-123321D01*
X78145Y-123385D01*
X78228Y-123452D01*
X78309Y-123522D01*
X78387Y-123594D01*
X78463Y-123670D01*
X78535Y-123748D01*
X78605Y-123829D01*
X78672Y-123912D01*
X78736Y-123997D01*
X78796Y-124085D01*
X78853Y-124175D01*
X78907Y-124267D01*
X78958Y-124361D01*
X79005Y-124457D01*
X79048Y-124555D01*
X79088Y-124654D01*
X79125Y-124754D01*
X79157Y-124855D01*
X79186Y-124958D01*
X79211Y-125062D01*
X79232Y-125166D01*
X79250Y-125272D01*
X79263Y-125378D01*
X79273Y-125484D01*
X79279Y-125590D01*
X79281Y-125697D01*
X76360Y-122776D02*
X76239Y-122778D01*
X76118Y-122784D01*
X75998Y-122794D01*
X75877Y-122807D01*
X75758Y-122825D01*
X75638Y-122846D01*
X75520Y-122871D01*
X75403Y-122900D01*
X75286Y-122933D01*
X75171Y-122969D01*
X75057Y-123010D01*
X74944Y-123053D01*
X74832Y-123101D01*
X74723Y-123152D01*
X74615Y-123207D01*
X74508Y-123265D01*
X74404Y-123326D01*
X74302Y-123391D01*
X74202Y-123459D01*
X74104Y-123530D01*
X74008Y-123604D01*
X73915Y-123681D01*
X73825Y-123762D01*
X73737Y-123845D01*
X73652Y-123931D01*
X73569Y-124020D01*
X73490Y-124111D01*
X73413Y-124205D01*
X73340Y-124301D01*
X73270Y-124399D01*
X73203Y-124500D01*
X73139Y-124603D01*
X73079Y-124708D01*
X73021Y-124815D01*
X72968Y-124923D01*
X72918Y-125033D01*
X72872Y-125145D01*
X72829Y-125258D01*
X72790Y-125373D01*
X78307Y-127969D02*
X78386Y-127891D01*
X78462Y-127811D01*
X78535Y-127728D01*
X78605Y-127642D01*
X78672Y-127555D01*
X78736Y-127464D01*
X78796Y-127372D01*
X78854Y-127278D01*
X78908Y-127181D01*
X78958Y-127083D01*
X79005Y-126983D01*
X79049Y-126882D01*
X79089Y-126779D01*
X79125Y-126674D01*
X79157Y-126569D01*
X79186Y-126462D01*
X79211Y-126355D01*
X79233Y-126246D01*
X79250Y-126137D01*
X79264Y-126028D01*
X79273Y-125918D01*
X79279Y-125807D01*
X79281Y-125697D01*
X78307Y-127969D02*
X72790Y-134460D01*
X79281Y-134460D01*
X116158Y-61181D02*
X116158Y-49497D01*
X119403Y-49497D01*
X119516Y-49499D01*
X119629Y-49505D01*
X119742Y-49515D01*
X119855Y-49529D01*
X119967Y-49546D01*
X120078Y-49568D01*
X120188Y-49593D01*
X120298Y-49623D01*
X120406Y-49656D01*
X120513Y-49693D01*
X120619Y-49733D01*
X120723Y-49778D01*
X120826Y-49826D01*
X120927Y-49877D01*
X121026Y-49932D01*
X121123Y-49990D01*
X121218Y-50052D01*
X121311Y-50117D01*
X121401Y-50185D01*
X121489Y-50256D01*
X121575Y-50331D01*
X121658Y-50408D01*
X121738Y-50488D01*
X121815Y-50571D01*
X121890Y-50657D01*
X121961Y-50745D01*
X122029Y-50835D01*
X122094Y-50928D01*
X122156Y-51023D01*
X122214Y-51120D01*
X122269Y-51219D01*
X122320Y-51320D01*
X122368Y-51423D01*
X122413Y-51527D01*
X122453Y-51633D01*
X122490Y-51740D01*
X122523Y-51848D01*
X122553Y-51958D01*
X122578Y-52068D01*
X122600Y-52179D01*
X122617Y-52291D01*
X122631Y-52404D01*
X122641Y-52517D01*
X122647Y-52630D01*
X122649Y-52743D01*
X122649Y-57935D01*
X122650Y-57935D02*
X122648Y-58048D01*
X122642Y-58161D01*
X122632Y-58274D01*
X122618Y-58387D01*
X122601Y-58499D01*
X122579Y-58610D01*
X122554Y-58720D01*
X122524Y-58830D01*
X122491Y-58938D01*
X122454Y-59045D01*
X122414Y-59151D01*
X122369Y-59255D01*
X122321Y-59358D01*
X122270Y-59459D01*
X122215Y-59558D01*
X122157Y-59655D01*
X122095Y-59750D01*
X122030Y-59843D01*
X121962Y-59933D01*
X121891Y-60021D01*
X121816Y-60107D01*
X121739Y-60190D01*
X121659Y-60270D01*
X121576Y-60347D01*
X121490Y-60422D01*
X121402Y-60493D01*
X121312Y-60561D01*
X121219Y-60626D01*
X121124Y-60688D01*
X121027Y-60746D01*
X120928Y-60801D01*
X120827Y-60852D01*
X120724Y-60900D01*
X120620Y-60945D01*
X120514Y-60985D01*
X120407Y-61022D01*
X120299Y-61055D01*
X120189Y-61085D01*
X120079Y-61110D01*
X119968Y-61132D01*
X119856Y-61149D01*
X119743Y-61163D01*
X119630Y-61173D01*
X119517Y-61179D01*
X119404Y-61181D01*
X119403Y-61181D02*
X116158Y-61181D01*
X127969Y-61181D02*
X131214Y-61181D01*
X131327Y-61179D01*
X131440Y-61173D01*
X131553Y-61163D01*
X131666Y-61149D01*
X131778Y-61132D01*
X131889Y-61110D01*
X131999Y-61085D01*
X132109Y-61055D01*
X132217Y-61022D01*
X132324Y-60985D01*
X132430Y-60945D01*
X132534Y-60900D01*
X132637Y-60852D01*
X132738Y-60801D01*
X132837Y-60746D01*
X132934Y-60688D01*
X133029Y-60626D01*
X133122Y-60561D01*
X133212Y-60493D01*
X133300Y-60422D01*
X133386Y-60347D01*
X133469Y-60270D01*
X133549Y-60190D01*
X133626Y-60107D01*
X133701Y-60021D01*
X133772Y-59933D01*
X133840Y-59843D01*
X133905Y-59750D01*
X133967Y-59655D01*
X134025Y-59558D01*
X134080Y-59459D01*
X134131Y-59358D01*
X134179Y-59255D01*
X134224Y-59151D01*
X134264Y-59045D01*
X134301Y-58938D01*
X134334Y-58830D01*
X134364Y-58720D01*
X134389Y-58610D01*
X134411Y-58499D01*
X134428Y-58387D01*
X134442Y-58274D01*
X134452Y-58161D01*
X134458Y-58048D01*
X134460Y-57935D01*
X134458Y-57822D01*
X134452Y-57709D01*
X134442Y-57596D01*
X134428Y-57483D01*
X134411Y-57371D01*
X134389Y-57260D01*
X134364Y-57150D01*
X134334Y-57040D01*
X134301Y-56932D01*
X134264Y-56825D01*
X134224Y-56719D01*
X134179Y-56615D01*
X134131Y-56512D01*
X134080Y-56411D01*
X134025Y-56312D01*
X133967Y-56215D01*
X133905Y-56120D01*
X133840Y-56027D01*
X133772Y-55937D01*
X133701Y-55849D01*
X133626Y-55763D01*
X133549Y-55680D01*
X133469Y-55600D01*
X133386Y-55523D01*
X133300Y-55448D01*
X133212Y-55377D01*
X133122Y-55309D01*
X133029Y-55244D01*
X132934Y-55182D01*
X132837Y-55124D01*
X132738Y-55069D01*
X132637Y-55018D01*
X132534Y-54970D01*
X132430Y-54925D01*
X132324Y-54885D01*
X132217Y-54848D01*
X132109Y-54815D01*
X131999Y-54785D01*
X131889Y-54760D01*
X131778Y-54738D01*
X131666Y-54721D01*
X131553Y-54707D01*
X131440Y-54697D01*
X131327Y-54691D01*
X131214Y-54689D01*
X131864Y-49497D02*
X127969Y-49497D01*
X131864Y-49497D02*
X131965Y-49499D01*
X132065Y-49505D01*
X132165Y-49515D01*
X132265Y-49528D01*
X132364Y-49546D01*
X132463Y-49567D01*
X132560Y-49592D01*
X132657Y-49621D01*
X132752Y-49654D01*
X132846Y-49690D01*
X132938Y-49730D01*
X133029Y-49773D01*
X133118Y-49820D01*
X133205Y-49870D01*
X133291Y-49924D01*
X133374Y-49981D01*
X133454Y-50041D01*
X133533Y-50104D01*
X133609Y-50171D01*
X133682Y-50240D01*
X133752Y-50312D01*
X133820Y-50386D01*
X133885Y-50463D01*
X133946Y-50543D01*
X134005Y-50625D01*
X134060Y-50709D01*
X134112Y-50795D01*
X134161Y-50883D01*
X134206Y-50973D01*
X134248Y-51065D01*
X134286Y-51158D01*
X134320Y-51253D01*
X134351Y-51348D01*
X134378Y-51445D01*
X134401Y-51543D01*
X134421Y-51642D01*
X134436Y-51742D01*
X134448Y-51842D01*
X134456Y-51942D01*
X134460Y-52043D01*
X134460Y-52143D01*
X134456Y-52244D01*
X134448Y-52344D01*
X134436Y-52444D01*
X134421Y-52544D01*
X134401Y-52643D01*
X134378Y-52741D01*
X134351Y-52838D01*
X134320Y-52933D01*
X134286Y-53028D01*
X134248Y-53121D01*
X134206Y-53213D01*
X134161Y-53303D01*
X134112Y-53391D01*
X134060Y-53477D01*
X134005Y-53561D01*
X133946Y-53643D01*
X133885Y-53723D01*
X133820Y-53800D01*
X133752Y-53874D01*
X133682Y-53946D01*
X133609Y-54015D01*
X133533Y-54082D01*
X133454Y-54145D01*
X133374Y-54205D01*
X133291Y-54262D01*
X133205Y-54316D01*
X133118Y-54366D01*
X133029Y-54413D01*
X132938Y-54456D01*
X132846Y-54496D01*
X132752Y-54532D01*
X132657Y-54565D01*
X132560Y-54594D01*
X132463Y-54619D01*
X132364Y-54640D01*
X132265Y-54658D01*
X132165Y-54671D01*
X132065Y-54681D01*
X131965Y-54687D01*
X131864Y-54689D01*
X131864Y-54690D02*
X129267Y-54690D01*
X-79281Y122776D02*
X-79281Y134460D01*
X-76035Y134460D01*
X-75922Y134458D01*
X-75809Y134452D01*
X-75696Y134442D01*
X-75583Y134428D01*
X-75471Y134411D01*
X-75360Y134389D01*
X-75250Y134364D01*
X-75140Y134334D01*
X-75032Y134301D01*
X-74925Y134264D01*
X-74819Y134224D01*
X-74715Y134179D01*
X-74612Y134131D01*
X-74511Y134080D01*
X-74412Y134025D01*
X-74315Y133967D01*
X-74220Y133905D01*
X-74127Y133840D01*
X-74037Y133772D01*
X-73949Y133701D01*
X-73863Y133626D01*
X-73780Y133549D01*
X-73700Y133469D01*
X-73623Y133386D01*
X-73548Y133300D01*
X-73477Y133212D01*
X-73409Y133122D01*
X-73344Y133029D01*
X-73282Y132934D01*
X-73224Y132837D01*
X-73169Y132738D01*
X-73118Y132637D01*
X-73070Y132534D01*
X-73025Y132430D01*
X-72985Y132324D01*
X-72948Y132217D01*
X-72915Y132109D01*
X-72885Y131999D01*
X-72860Y131889D01*
X-72838Y131778D01*
X-72821Y131666D01*
X-72807Y131553D01*
X-72797Y131440D01*
X-72791Y131327D01*
X-72789Y131214D01*
X-72790Y131214D02*
X-72790Y126022D01*
X-72789Y126022D02*
X-72791Y125909D01*
X-72797Y125796D01*
X-72807Y125683D01*
X-72821Y125570D01*
X-72838Y125458D01*
X-72860Y125347D01*
X-72885Y125237D01*
X-72915Y125127D01*
X-72948Y125019D01*
X-72985Y124912D01*
X-73025Y124806D01*
X-73070Y124702D01*
X-73118Y124599D01*
X-73169Y124498D01*
X-73224Y124399D01*
X-73282Y124302D01*
X-73344Y124207D01*
X-73409Y124114D01*
X-73477Y124024D01*
X-73548Y123936D01*
X-73623Y123850D01*
X-73700Y123767D01*
X-73780Y123687D01*
X-73863Y123610D01*
X-73949Y123535D01*
X-74037Y123464D01*
X-74127Y123396D01*
X-74220Y123331D01*
X-74315Y123269D01*
X-74412Y123211D01*
X-74511Y123156D01*
X-74612Y123105D01*
X-74715Y123057D01*
X-74819Y123012D01*
X-74925Y122972D01*
X-75032Y122935D01*
X-75140Y122902D01*
X-75250Y122872D01*
X-75360Y122847D01*
X-75471Y122825D01*
X-75583Y122808D01*
X-75696Y122794D01*
X-75809Y122784D01*
X-75922Y122778D01*
X-76035Y122776D01*
X-79281Y122776D01*
X-67470Y125372D02*
X-64874Y134460D01*
X-67470Y125372D02*
X-60979Y125372D01*
X-62926Y127969D02*
X-62926Y122776D01*
X-168402Y70612D02*
X-168402Y58928D01*
X-168402Y70612D02*
X-165156Y70612D01*
X-165043Y70610D01*
X-164930Y70604D01*
X-164817Y70594D01*
X-164704Y70580D01*
X-164592Y70563D01*
X-164481Y70541D01*
X-164371Y70516D01*
X-164261Y70486D01*
X-164153Y70453D01*
X-164046Y70416D01*
X-163940Y70376D01*
X-163836Y70331D01*
X-163733Y70283D01*
X-163632Y70232D01*
X-163533Y70177D01*
X-163436Y70119D01*
X-163341Y70057D01*
X-163248Y69992D01*
X-163158Y69924D01*
X-163070Y69853D01*
X-162984Y69778D01*
X-162901Y69701D01*
X-162821Y69621D01*
X-162744Y69538D01*
X-162669Y69452D01*
X-162598Y69364D01*
X-162530Y69274D01*
X-162465Y69181D01*
X-162403Y69086D01*
X-162345Y68989D01*
X-162290Y68890D01*
X-162239Y68789D01*
X-162191Y68686D01*
X-162146Y68582D01*
X-162106Y68476D01*
X-162069Y68369D01*
X-162036Y68261D01*
X-162006Y68151D01*
X-161981Y68041D01*
X-161959Y67930D01*
X-161942Y67818D01*
X-161928Y67705D01*
X-161918Y67592D01*
X-161912Y67479D01*
X-161910Y67366D01*
X-161912Y67253D01*
X-161918Y67140D01*
X-161928Y67027D01*
X-161942Y66914D01*
X-161959Y66802D01*
X-161981Y66691D01*
X-162006Y66581D01*
X-162036Y66471D01*
X-162069Y66363D01*
X-162106Y66256D01*
X-162146Y66150D01*
X-162191Y66046D01*
X-162239Y65943D01*
X-162290Y65842D01*
X-162345Y65743D01*
X-162403Y65646D01*
X-162465Y65551D01*
X-162530Y65458D01*
X-162598Y65368D01*
X-162669Y65280D01*
X-162744Y65194D01*
X-162821Y65111D01*
X-162901Y65031D01*
X-162984Y64954D01*
X-163070Y64879D01*
X-163158Y64808D01*
X-163248Y64740D01*
X-163341Y64675D01*
X-163436Y64613D01*
X-163533Y64555D01*
X-163632Y64500D01*
X-163733Y64449D01*
X-163836Y64401D01*
X-163940Y64356D01*
X-164046Y64316D01*
X-164153Y64279D01*
X-164261Y64246D01*
X-164371Y64216D01*
X-164481Y64191D01*
X-164592Y64169D01*
X-164704Y64152D01*
X-164817Y64138D01*
X-164930Y64128D01*
X-165043Y64122D01*
X-165156Y64120D01*
X-165156Y64121D02*
X-168402Y64121D01*
X-164507Y64121D02*
X-161911Y58928D01*
X-157046Y68016D02*
X-153800Y70612D01*
X-153800Y58928D01*
X-150555Y58928D02*
X-157046Y58928D01*
X52765Y-144018D02*
X52765Y-155702D01*
X52765Y-144018D02*
X56010Y-144018D01*
X56123Y-144020D01*
X56236Y-144026D01*
X56349Y-144036D01*
X56462Y-144050D01*
X56574Y-144067D01*
X56685Y-144089D01*
X56795Y-144114D01*
X56905Y-144144D01*
X57013Y-144177D01*
X57120Y-144214D01*
X57226Y-144254D01*
X57330Y-144299D01*
X57433Y-144347D01*
X57534Y-144398D01*
X57633Y-144453D01*
X57730Y-144511D01*
X57825Y-144573D01*
X57918Y-144638D01*
X58008Y-144706D01*
X58096Y-144777D01*
X58182Y-144852D01*
X58265Y-144929D01*
X58345Y-145009D01*
X58422Y-145092D01*
X58497Y-145178D01*
X58568Y-145266D01*
X58636Y-145356D01*
X58701Y-145449D01*
X58763Y-145544D01*
X58821Y-145641D01*
X58876Y-145740D01*
X58927Y-145841D01*
X58975Y-145944D01*
X59020Y-146048D01*
X59060Y-146154D01*
X59097Y-146261D01*
X59130Y-146369D01*
X59160Y-146479D01*
X59185Y-146589D01*
X59207Y-146700D01*
X59224Y-146812D01*
X59238Y-146925D01*
X59248Y-147038D01*
X59254Y-147151D01*
X59256Y-147264D01*
X59254Y-147377D01*
X59248Y-147490D01*
X59238Y-147603D01*
X59224Y-147716D01*
X59207Y-147828D01*
X59185Y-147939D01*
X59160Y-148049D01*
X59130Y-148159D01*
X59097Y-148267D01*
X59060Y-148374D01*
X59020Y-148480D01*
X58975Y-148584D01*
X58927Y-148687D01*
X58876Y-148788D01*
X58821Y-148887D01*
X58763Y-148984D01*
X58701Y-149079D01*
X58636Y-149172D01*
X58568Y-149262D01*
X58497Y-149350D01*
X58422Y-149436D01*
X58345Y-149519D01*
X58265Y-149599D01*
X58182Y-149676D01*
X58096Y-149751D01*
X58008Y-149822D01*
X57918Y-149890D01*
X57825Y-149955D01*
X57730Y-150017D01*
X57633Y-150075D01*
X57534Y-150130D01*
X57433Y-150181D01*
X57330Y-150229D01*
X57226Y-150274D01*
X57120Y-150314D01*
X57013Y-150351D01*
X56905Y-150384D01*
X56795Y-150414D01*
X56685Y-150439D01*
X56574Y-150461D01*
X56462Y-150478D01*
X56349Y-150492D01*
X56236Y-150502D01*
X56123Y-150508D01*
X56010Y-150510D01*
X56010Y-150509D02*
X52765Y-150509D01*
X56659Y-150509D02*
X59256Y-155702D01*
X70612Y-146939D02*
X70610Y-146832D01*
X70604Y-146726D01*
X70594Y-146620D01*
X70581Y-146514D01*
X70563Y-146408D01*
X70542Y-146304D01*
X70517Y-146200D01*
X70488Y-146097D01*
X70456Y-145996D01*
X70419Y-145896D01*
X70379Y-145797D01*
X70336Y-145699D01*
X70289Y-145603D01*
X70238Y-145509D01*
X70184Y-145417D01*
X70127Y-145327D01*
X70067Y-145239D01*
X70003Y-145154D01*
X69936Y-145071D01*
X69866Y-144990D01*
X69794Y-144912D01*
X69718Y-144836D01*
X69640Y-144764D01*
X69559Y-144694D01*
X69476Y-144627D01*
X69391Y-144563D01*
X69303Y-144503D01*
X69213Y-144446D01*
X69121Y-144392D01*
X69027Y-144341D01*
X68931Y-144294D01*
X68833Y-144251D01*
X68734Y-144211D01*
X68634Y-144174D01*
X68533Y-144142D01*
X68430Y-144113D01*
X68326Y-144088D01*
X68222Y-144067D01*
X68116Y-144049D01*
X68010Y-144036D01*
X67904Y-144026D01*
X67798Y-144020D01*
X67691Y-144018D01*
X67570Y-144020D01*
X67449Y-144026D01*
X67329Y-144036D01*
X67208Y-144049D01*
X67089Y-144067D01*
X66969Y-144088D01*
X66851Y-144113D01*
X66734Y-144142D01*
X66617Y-144175D01*
X66502Y-144211D01*
X66388Y-144252D01*
X66275Y-144295D01*
X66163Y-144343D01*
X66054Y-144394D01*
X65946Y-144449D01*
X65839Y-144507D01*
X65735Y-144568D01*
X65633Y-144633D01*
X65533Y-144701D01*
X65435Y-144772D01*
X65339Y-144846D01*
X65246Y-144923D01*
X65156Y-145004D01*
X65068Y-145087D01*
X64983Y-145173D01*
X64900Y-145262D01*
X64821Y-145353D01*
X64744Y-145447D01*
X64671Y-145543D01*
X64601Y-145641D01*
X64534Y-145742D01*
X64470Y-145845D01*
X64410Y-145950D01*
X64352Y-146057D01*
X64299Y-146165D01*
X64249Y-146275D01*
X64203Y-146387D01*
X64160Y-146500D01*
X64121Y-146615D01*
X69638Y-149211D02*
X69717Y-149133D01*
X69793Y-149053D01*
X69866Y-148970D01*
X69936Y-148884D01*
X70003Y-148797D01*
X70067Y-148706D01*
X70127Y-148614D01*
X70185Y-148520D01*
X70239Y-148423D01*
X70289Y-148325D01*
X70336Y-148225D01*
X70380Y-148124D01*
X70420Y-148021D01*
X70456Y-147916D01*
X70488Y-147811D01*
X70517Y-147704D01*
X70542Y-147597D01*
X70564Y-147488D01*
X70581Y-147379D01*
X70595Y-147270D01*
X70604Y-147160D01*
X70610Y-147049D01*
X70612Y-146939D01*
X69638Y-149211D02*
X64121Y-155702D01*
X70612Y-155702D01*
X144018Y-70612D02*
X144018Y-58928D01*
X147264Y-58928D01*
X147377Y-58930D01*
X147490Y-58936D01*
X147603Y-58946D01*
X147716Y-58960D01*
X147828Y-58977D01*
X147939Y-58999D01*
X148049Y-59024D01*
X148159Y-59054D01*
X148267Y-59087D01*
X148374Y-59124D01*
X148480Y-59164D01*
X148584Y-59209D01*
X148687Y-59257D01*
X148788Y-59308D01*
X148887Y-59363D01*
X148984Y-59421D01*
X149079Y-59483D01*
X149172Y-59548D01*
X149262Y-59616D01*
X149350Y-59687D01*
X149436Y-59762D01*
X149519Y-59839D01*
X149599Y-59919D01*
X149676Y-60002D01*
X149751Y-60088D01*
X149822Y-60176D01*
X149890Y-60266D01*
X149955Y-60359D01*
X150017Y-60454D01*
X150075Y-60551D01*
X150130Y-60650D01*
X150181Y-60751D01*
X150229Y-60854D01*
X150274Y-60958D01*
X150314Y-61064D01*
X150351Y-61171D01*
X150384Y-61279D01*
X150414Y-61389D01*
X150439Y-61499D01*
X150461Y-61610D01*
X150478Y-61722D01*
X150492Y-61835D01*
X150502Y-61948D01*
X150508Y-62061D01*
X150510Y-62174D01*
X150508Y-62287D01*
X150502Y-62400D01*
X150492Y-62513D01*
X150478Y-62626D01*
X150461Y-62738D01*
X150439Y-62849D01*
X150414Y-62959D01*
X150384Y-63069D01*
X150351Y-63177D01*
X150314Y-63284D01*
X150274Y-63390D01*
X150229Y-63494D01*
X150181Y-63597D01*
X150130Y-63698D01*
X150075Y-63797D01*
X150017Y-63894D01*
X149955Y-63989D01*
X149890Y-64082D01*
X149822Y-64172D01*
X149751Y-64260D01*
X149676Y-64346D01*
X149599Y-64429D01*
X149519Y-64509D01*
X149436Y-64586D01*
X149350Y-64661D01*
X149262Y-64732D01*
X149172Y-64800D01*
X149079Y-64865D01*
X148984Y-64927D01*
X148887Y-64985D01*
X148788Y-65040D01*
X148687Y-65091D01*
X148584Y-65139D01*
X148480Y-65184D01*
X148374Y-65224D01*
X148267Y-65261D01*
X148159Y-65294D01*
X148049Y-65324D01*
X147939Y-65349D01*
X147828Y-65371D01*
X147716Y-65388D01*
X147603Y-65402D01*
X147490Y-65412D01*
X147377Y-65418D01*
X147264Y-65420D01*
X147264Y-65419D02*
X144018Y-65419D01*
X147913Y-65419D02*
X150509Y-70612D01*
X155374Y-70612D02*
X158620Y-70612D01*
X158733Y-70610D01*
X158846Y-70604D01*
X158959Y-70594D01*
X159072Y-70580D01*
X159184Y-70563D01*
X159295Y-70541D01*
X159405Y-70516D01*
X159515Y-70486D01*
X159623Y-70453D01*
X159730Y-70416D01*
X159836Y-70376D01*
X159940Y-70331D01*
X160043Y-70283D01*
X160144Y-70232D01*
X160243Y-70177D01*
X160340Y-70119D01*
X160435Y-70057D01*
X160528Y-69992D01*
X160618Y-69924D01*
X160706Y-69853D01*
X160792Y-69778D01*
X160875Y-69701D01*
X160955Y-69621D01*
X161032Y-69538D01*
X161107Y-69452D01*
X161178Y-69364D01*
X161246Y-69274D01*
X161311Y-69181D01*
X161373Y-69086D01*
X161431Y-68989D01*
X161486Y-68890D01*
X161537Y-68789D01*
X161585Y-68686D01*
X161630Y-68582D01*
X161670Y-68476D01*
X161707Y-68369D01*
X161740Y-68261D01*
X161770Y-68151D01*
X161795Y-68041D01*
X161817Y-67930D01*
X161834Y-67818D01*
X161848Y-67705D01*
X161858Y-67592D01*
X161864Y-67479D01*
X161866Y-67366D01*
X161864Y-67253D01*
X161858Y-67140D01*
X161848Y-67027D01*
X161834Y-66914D01*
X161817Y-66802D01*
X161795Y-66691D01*
X161770Y-66581D01*
X161740Y-66471D01*
X161707Y-66363D01*
X161670Y-66256D01*
X161630Y-66150D01*
X161585Y-66046D01*
X161537Y-65943D01*
X161486Y-65842D01*
X161431Y-65743D01*
X161373Y-65646D01*
X161311Y-65551D01*
X161246Y-65458D01*
X161178Y-65368D01*
X161107Y-65280D01*
X161032Y-65194D01*
X160955Y-65111D01*
X160875Y-65031D01*
X160792Y-64954D01*
X160706Y-64879D01*
X160618Y-64808D01*
X160528Y-64740D01*
X160435Y-64675D01*
X160340Y-64613D01*
X160243Y-64555D01*
X160144Y-64500D01*
X160043Y-64449D01*
X159940Y-64401D01*
X159836Y-64356D01*
X159730Y-64316D01*
X159623Y-64279D01*
X159515Y-64246D01*
X159405Y-64216D01*
X159295Y-64191D01*
X159184Y-64169D01*
X159072Y-64152D01*
X158959Y-64138D01*
X158846Y-64128D01*
X158733Y-64122D01*
X158620Y-64120D01*
X159269Y-58928D02*
X155374Y-58928D01*
X159269Y-58928D02*
X159370Y-58930D01*
X159470Y-58936D01*
X159570Y-58946D01*
X159670Y-58959D01*
X159769Y-58977D01*
X159868Y-58998D01*
X159965Y-59023D01*
X160062Y-59052D01*
X160157Y-59085D01*
X160251Y-59121D01*
X160343Y-59161D01*
X160434Y-59204D01*
X160523Y-59251D01*
X160610Y-59301D01*
X160696Y-59355D01*
X160779Y-59412D01*
X160859Y-59472D01*
X160938Y-59535D01*
X161014Y-59602D01*
X161087Y-59671D01*
X161157Y-59743D01*
X161225Y-59817D01*
X161290Y-59894D01*
X161351Y-59974D01*
X161410Y-60056D01*
X161465Y-60140D01*
X161517Y-60226D01*
X161566Y-60314D01*
X161611Y-60404D01*
X161653Y-60496D01*
X161691Y-60589D01*
X161725Y-60684D01*
X161756Y-60779D01*
X161783Y-60876D01*
X161806Y-60974D01*
X161826Y-61073D01*
X161841Y-61173D01*
X161853Y-61273D01*
X161861Y-61373D01*
X161865Y-61474D01*
X161865Y-61574D01*
X161861Y-61675D01*
X161853Y-61775D01*
X161841Y-61875D01*
X161826Y-61975D01*
X161806Y-62074D01*
X161783Y-62172D01*
X161756Y-62269D01*
X161725Y-62364D01*
X161691Y-62459D01*
X161653Y-62552D01*
X161611Y-62644D01*
X161566Y-62734D01*
X161517Y-62822D01*
X161465Y-62908D01*
X161410Y-62992D01*
X161351Y-63074D01*
X161290Y-63154D01*
X161225Y-63231D01*
X161157Y-63305D01*
X161087Y-63377D01*
X161014Y-63446D01*
X160938Y-63513D01*
X160859Y-63576D01*
X160779Y-63636D01*
X160696Y-63693D01*
X160610Y-63747D01*
X160523Y-63797D01*
X160434Y-63844D01*
X160343Y-63887D01*
X160251Y-63927D01*
X160157Y-63963D01*
X160062Y-63996D01*
X159965Y-64025D01*
X159868Y-64050D01*
X159769Y-64071D01*
X159670Y-64089D01*
X159570Y-64102D01*
X159470Y-64112D01*
X159370Y-64118D01*
X159269Y-64120D01*
X159269Y-64121D02*
X156673Y-64121D01*
X-76775Y144018D02*
X-76775Y155702D01*
X-73530Y155702D01*
X-73417Y155700D01*
X-73304Y155694D01*
X-73191Y155684D01*
X-73078Y155670D01*
X-72966Y155653D01*
X-72855Y155631D01*
X-72745Y155606D01*
X-72635Y155576D01*
X-72527Y155543D01*
X-72420Y155506D01*
X-72314Y155466D01*
X-72210Y155421D01*
X-72107Y155373D01*
X-72006Y155322D01*
X-71907Y155267D01*
X-71810Y155209D01*
X-71715Y155147D01*
X-71622Y155082D01*
X-71532Y155014D01*
X-71444Y154943D01*
X-71358Y154868D01*
X-71275Y154791D01*
X-71195Y154711D01*
X-71118Y154628D01*
X-71043Y154542D01*
X-70972Y154454D01*
X-70904Y154364D01*
X-70839Y154271D01*
X-70777Y154176D01*
X-70719Y154079D01*
X-70664Y153980D01*
X-70613Y153879D01*
X-70565Y153776D01*
X-70520Y153672D01*
X-70480Y153566D01*
X-70443Y153459D01*
X-70410Y153351D01*
X-70380Y153241D01*
X-70355Y153131D01*
X-70333Y153020D01*
X-70316Y152908D01*
X-70302Y152795D01*
X-70292Y152682D01*
X-70286Y152569D01*
X-70284Y152456D01*
X-70286Y152343D01*
X-70292Y152230D01*
X-70302Y152117D01*
X-70316Y152004D01*
X-70333Y151892D01*
X-70355Y151781D01*
X-70380Y151671D01*
X-70410Y151561D01*
X-70443Y151453D01*
X-70480Y151346D01*
X-70520Y151240D01*
X-70565Y151136D01*
X-70613Y151033D01*
X-70664Y150932D01*
X-70719Y150833D01*
X-70777Y150736D01*
X-70839Y150641D01*
X-70904Y150548D01*
X-70972Y150458D01*
X-71043Y150370D01*
X-71118Y150284D01*
X-71195Y150201D01*
X-71275Y150121D01*
X-71358Y150044D01*
X-71444Y149969D01*
X-71532Y149898D01*
X-71622Y149830D01*
X-71715Y149765D01*
X-71810Y149703D01*
X-71907Y149645D01*
X-72006Y149590D01*
X-72107Y149539D01*
X-72210Y149491D01*
X-72314Y149446D01*
X-72420Y149406D01*
X-72527Y149369D01*
X-72635Y149336D01*
X-72745Y149306D01*
X-72855Y149281D01*
X-72966Y149259D01*
X-73078Y149242D01*
X-73191Y149228D01*
X-73304Y149218D01*
X-73417Y149212D01*
X-73530Y149210D01*
X-73530Y149211D02*
X-76775Y149211D01*
X-72881Y149211D02*
X-70284Y144018D01*
X-65419Y146614D02*
X-62823Y155702D01*
X-65419Y146614D02*
X-58928Y146614D01*
X-60875Y149211D02*
X-60875Y144018D01*
X-192270Y45212D02*
X-192270Y33528D01*
X-187077Y33528D01*
X-182767Y42616D02*
X-179522Y45212D01*
X-179522Y33528D01*
X-182767Y33528D02*
X-176276Y33528D01*
X33528Y-175768D02*
X33528Y-187452D01*
X38721Y-187452D01*
X49522Y-178689D02*
X49520Y-178582D01*
X49514Y-178476D01*
X49504Y-178370D01*
X49491Y-178264D01*
X49473Y-178158D01*
X49452Y-178054D01*
X49427Y-177950D01*
X49398Y-177847D01*
X49366Y-177746D01*
X49329Y-177646D01*
X49289Y-177547D01*
X49246Y-177449D01*
X49199Y-177353D01*
X49148Y-177259D01*
X49094Y-177167D01*
X49037Y-177077D01*
X48977Y-176989D01*
X48913Y-176904D01*
X48846Y-176821D01*
X48776Y-176740D01*
X48704Y-176662D01*
X48628Y-176586D01*
X48550Y-176514D01*
X48469Y-176444D01*
X48386Y-176377D01*
X48301Y-176313D01*
X48213Y-176253D01*
X48123Y-176196D01*
X48031Y-176142D01*
X47937Y-176091D01*
X47841Y-176044D01*
X47743Y-176001D01*
X47644Y-175961D01*
X47544Y-175924D01*
X47443Y-175892D01*
X47340Y-175863D01*
X47236Y-175838D01*
X47132Y-175817D01*
X47026Y-175799D01*
X46920Y-175786D01*
X46814Y-175776D01*
X46708Y-175770D01*
X46601Y-175768D01*
X46480Y-175770D01*
X46359Y-175776D01*
X46239Y-175786D01*
X46118Y-175799D01*
X45999Y-175817D01*
X45879Y-175838D01*
X45761Y-175863D01*
X45644Y-175892D01*
X45527Y-175925D01*
X45412Y-175961D01*
X45298Y-176002D01*
X45185Y-176045D01*
X45073Y-176093D01*
X44964Y-176144D01*
X44856Y-176199D01*
X44749Y-176257D01*
X44645Y-176318D01*
X44543Y-176383D01*
X44443Y-176451D01*
X44345Y-176522D01*
X44249Y-176596D01*
X44156Y-176673D01*
X44066Y-176754D01*
X43978Y-176837D01*
X43893Y-176923D01*
X43810Y-177012D01*
X43731Y-177103D01*
X43654Y-177197D01*
X43581Y-177293D01*
X43511Y-177391D01*
X43444Y-177492D01*
X43380Y-177595D01*
X43320Y-177700D01*
X43262Y-177807D01*
X43209Y-177915D01*
X43159Y-178025D01*
X43113Y-178137D01*
X43070Y-178250D01*
X43031Y-178365D01*
X48547Y-180961D02*
X48626Y-180883D01*
X48702Y-180803D01*
X48775Y-180720D01*
X48845Y-180634D01*
X48912Y-180547D01*
X48976Y-180456D01*
X49036Y-180364D01*
X49094Y-180270D01*
X49148Y-180173D01*
X49198Y-180075D01*
X49245Y-179975D01*
X49289Y-179874D01*
X49329Y-179771D01*
X49365Y-179666D01*
X49397Y-179561D01*
X49426Y-179454D01*
X49451Y-179347D01*
X49473Y-179238D01*
X49490Y-179129D01*
X49504Y-179020D01*
X49513Y-178910D01*
X49519Y-178799D01*
X49521Y-178689D01*
X48548Y-180961D02*
X43030Y-187452D01*
X49522Y-187452D01*
X184667Y-45212D02*
X184667Y-33528D01*
X184667Y-45212D02*
X189859Y-45212D01*
X194169Y-45212D02*
X197414Y-45212D01*
X197527Y-45210D01*
X197640Y-45204D01*
X197753Y-45194D01*
X197866Y-45180D01*
X197978Y-45163D01*
X198089Y-45141D01*
X198199Y-45116D01*
X198309Y-45086D01*
X198417Y-45053D01*
X198524Y-45016D01*
X198630Y-44976D01*
X198734Y-44931D01*
X198837Y-44883D01*
X198938Y-44832D01*
X199037Y-44777D01*
X199134Y-44719D01*
X199229Y-44657D01*
X199322Y-44592D01*
X199412Y-44524D01*
X199500Y-44453D01*
X199586Y-44378D01*
X199669Y-44301D01*
X199749Y-44221D01*
X199826Y-44138D01*
X199901Y-44052D01*
X199972Y-43964D01*
X200040Y-43874D01*
X200105Y-43781D01*
X200167Y-43686D01*
X200225Y-43589D01*
X200280Y-43490D01*
X200331Y-43389D01*
X200379Y-43286D01*
X200424Y-43182D01*
X200464Y-43076D01*
X200501Y-42969D01*
X200534Y-42861D01*
X200564Y-42751D01*
X200589Y-42641D01*
X200611Y-42530D01*
X200628Y-42418D01*
X200642Y-42305D01*
X200652Y-42192D01*
X200658Y-42079D01*
X200660Y-41966D01*
X200658Y-41853D01*
X200652Y-41740D01*
X200642Y-41627D01*
X200628Y-41514D01*
X200611Y-41402D01*
X200589Y-41291D01*
X200564Y-41181D01*
X200534Y-41071D01*
X200501Y-40963D01*
X200464Y-40856D01*
X200424Y-40750D01*
X200379Y-40646D01*
X200331Y-40543D01*
X200280Y-40442D01*
X200225Y-40343D01*
X200167Y-40246D01*
X200105Y-40151D01*
X200040Y-40058D01*
X199972Y-39968D01*
X199901Y-39880D01*
X199826Y-39794D01*
X199749Y-39711D01*
X199669Y-39631D01*
X199586Y-39554D01*
X199500Y-39479D01*
X199412Y-39408D01*
X199322Y-39340D01*
X199229Y-39275D01*
X199134Y-39213D01*
X199037Y-39155D01*
X198938Y-39100D01*
X198837Y-39049D01*
X198734Y-39001D01*
X198630Y-38956D01*
X198524Y-38916D01*
X198417Y-38879D01*
X198309Y-38846D01*
X198199Y-38816D01*
X198089Y-38791D01*
X197978Y-38769D01*
X197866Y-38752D01*
X197753Y-38738D01*
X197640Y-38728D01*
X197527Y-38722D01*
X197414Y-38720D01*
X198064Y-33528D02*
X194169Y-33528D01*
X198064Y-33528D02*
X198165Y-33530D01*
X198265Y-33536D01*
X198365Y-33546D01*
X198465Y-33559D01*
X198564Y-33577D01*
X198663Y-33598D01*
X198760Y-33623D01*
X198857Y-33652D01*
X198952Y-33685D01*
X199046Y-33721D01*
X199138Y-33761D01*
X199229Y-33804D01*
X199318Y-33851D01*
X199405Y-33901D01*
X199491Y-33955D01*
X199574Y-34012D01*
X199654Y-34072D01*
X199733Y-34135D01*
X199809Y-34202D01*
X199882Y-34271D01*
X199952Y-34343D01*
X200020Y-34417D01*
X200085Y-34494D01*
X200146Y-34574D01*
X200205Y-34656D01*
X200260Y-34740D01*
X200312Y-34826D01*
X200361Y-34914D01*
X200406Y-35004D01*
X200448Y-35096D01*
X200486Y-35189D01*
X200520Y-35284D01*
X200551Y-35379D01*
X200578Y-35476D01*
X200601Y-35574D01*
X200621Y-35673D01*
X200636Y-35773D01*
X200648Y-35873D01*
X200656Y-35973D01*
X200660Y-36074D01*
X200660Y-36174D01*
X200656Y-36275D01*
X200648Y-36375D01*
X200636Y-36475D01*
X200621Y-36575D01*
X200601Y-36674D01*
X200578Y-36772D01*
X200551Y-36869D01*
X200520Y-36964D01*
X200486Y-37059D01*
X200448Y-37152D01*
X200406Y-37244D01*
X200361Y-37334D01*
X200312Y-37422D01*
X200260Y-37508D01*
X200205Y-37592D01*
X200146Y-37674D01*
X200085Y-37754D01*
X200020Y-37831D01*
X199952Y-37905D01*
X199882Y-37977D01*
X199809Y-38046D01*
X199733Y-38113D01*
X199654Y-38176D01*
X199574Y-38236D01*
X199491Y-38293D01*
X199405Y-38347D01*
X199318Y-38397D01*
X199229Y-38444D01*
X199138Y-38487D01*
X199046Y-38527D01*
X198952Y-38563D01*
X198857Y-38596D01*
X198760Y-38625D01*
X198663Y-38650D01*
X198564Y-38671D01*
X198465Y-38689D01*
X198365Y-38702D01*
X198265Y-38712D01*
X198165Y-38718D01*
X198064Y-38720D01*
X198064Y-38721D02*
X195467Y-38721D01*
X-45212Y176276D02*
X-45212Y187960D01*
X-45212Y176276D02*
X-40019Y176276D01*
X-35710Y178872D02*
X-33113Y187960D01*
X-35710Y178872D02*
X-29219Y178872D01*
X-31166Y181469D02*
X-31166Y176276D01*
X-96735Y101996D02*
X-96735Y90312D01*
X-91542Y90312D01*
X-87233Y90312D02*
X-83338Y90312D01*
X-83239Y90314D01*
X-83139Y90320D01*
X-83040Y90329D01*
X-82942Y90342D01*
X-82844Y90359D01*
X-82746Y90380D01*
X-82650Y90405D01*
X-82555Y90433D01*
X-82461Y90465D01*
X-82368Y90500D01*
X-82276Y90539D01*
X-82186Y90582D01*
X-82098Y90627D01*
X-82011Y90677D01*
X-81927Y90729D01*
X-81844Y90785D01*
X-81764Y90843D01*
X-81686Y90905D01*
X-81611Y90970D01*
X-81538Y91038D01*
X-81468Y91108D01*
X-81400Y91181D01*
X-81335Y91256D01*
X-81273Y91334D01*
X-81215Y91414D01*
X-81159Y91497D01*
X-81107Y91581D01*
X-81057Y91668D01*
X-81012Y91756D01*
X-80969Y91846D01*
X-80930Y91938D01*
X-80895Y92031D01*
X-80863Y92125D01*
X-80835Y92220D01*
X-80810Y92316D01*
X-80789Y92414D01*
X-80772Y92512D01*
X-80759Y92610D01*
X-80750Y92709D01*
X-80744Y92809D01*
X-80742Y92908D01*
X-80742Y94206D01*
X-80744Y94305D01*
X-80750Y94405D01*
X-80759Y94504D01*
X-80772Y94602D01*
X-80789Y94700D01*
X-80810Y94798D01*
X-80835Y94894D01*
X-80863Y94989D01*
X-80895Y95083D01*
X-80930Y95176D01*
X-80969Y95268D01*
X-81012Y95358D01*
X-81057Y95446D01*
X-81107Y95533D01*
X-81159Y95617D01*
X-81215Y95700D01*
X-81273Y95780D01*
X-81335Y95858D01*
X-81400Y95933D01*
X-81468Y96006D01*
X-81538Y96076D01*
X-81611Y96144D01*
X-81686Y96209D01*
X-81764Y96271D01*
X-81844Y96329D01*
X-81927Y96385D01*
X-82011Y96437D01*
X-82098Y96487D01*
X-82186Y96532D01*
X-82276Y96575D01*
X-82368Y96614D01*
X-82461Y96649D01*
X-82555Y96681D01*
X-82650Y96709D01*
X-82746Y96734D01*
X-82844Y96755D01*
X-82942Y96772D01*
X-83040Y96785D01*
X-83139Y96794D01*
X-83239Y96800D01*
X-83338Y96802D01*
X-83338Y96803D02*
X-87233Y96803D01*
X-87233Y101996D01*
X-80742Y101996D01*
X82605Y-88771D02*
X82605Y-100455D01*
X87798Y-100455D01*
X92108Y-93964D02*
X96003Y-93964D01*
X96102Y-93966D01*
X96202Y-93972D01*
X96301Y-93981D01*
X96399Y-93994D01*
X96497Y-94011D01*
X96595Y-94032D01*
X96691Y-94057D01*
X96786Y-94085D01*
X96880Y-94117D01*
X96973Y-94152D01*
X97065Y-94191D01*
X97155Y-94234D01*
X97243Y-94279D01*
X97330Y-94329D01*
X97414Y-94381D01*
X97497Y-94437D01*
X97577Y-94495D01*
X97655Y-94557D01*
X97730Y-94622D01*
X97803Y-94690D01*
X97873Y-94760D01*
X97941Y-94833D01*
X98006Y-94908D01*
X98068Y-94986D01*
X98126Y-95066D01*
X98182Y-95149D01*
X98234Y-95233D01*
X98284Y-95320D01*
X98329Y-95408D01*
X98372Y-95498D01*
X98411Y-95590D01*
X98446Y-95683D01*
X98478Y-95777D01*
X98506Y-95872D01*
X98531Y-95968D01*
X98552Y-96066D01*
X98569Y-96164D01*
X98582Y-96262D01*
X98591Y-96361D01*
X98597Y-96461D01*
X98599Y-96560D01*
X98599Y-97210D01*
X98597Y-97323D01*
X98591Y-97436D01*
X98581Y-97549D01*
X98567Y-97662D01*
X98550Y-97774D01*
X98528Y-97885D01*
X98503Y-97995D01*
X98473Y-98105D01*
X98440Y-98213D01*
X98403Y-98320D01*
X98363Y-98426D01*
X98318Y-98530D01*
X98270Y-98633D01*
X98219Y-98734D01*
X98164Y-98833D01*
X98106Y-98930D01*
X98044Y-99025D01*
X97979Y-99118D01*
X97911Y-99208D01*
X97840Y-99296D01*
X97765Y-99382D01*
X97688Y-99465D01*
X97608Y-99545D01*
X97525Y-99622D01*
X97439Y-99697D01*
X97351Y-99768D01*
X97261Y-99836D01*
X97168Y-99901D01*
X97073Y-99963D01*
X96976Y-100021D01*
X96877Y-100076D01*
X96776Y-100127D01*
X96673Y-100175D01*
X96569Y-100220D01*
X96463Y-100260D01*
X96356Y-100297D01*
X96248Y-100330D01*
X96138Y-100360D01*
X96028Y-100385D01*
X95917Y-100407D01*
X95805Y-100424D01*
X95692Y-100438D01*
X95579Y-100448D01*
X95466Y-100454D01*
X95353Y-100456D01*
X95240Y-100454D01*
X95127Y-100448D01*
X95014Y-100438D01*
X94901Y-100424D01*
X94789Y-100407D01*
X94678Y-100385D01*
X94568Y-100360D01*
X94458Y-100330D01*
X94350Y-100297D01*
X94243Y-100260D01*
X94137Y-100220D01*
X94033Y-100175D01*
X93930Y-100127D01*
X93829Y-100076D01*
X93730Y-100021D01*
X93633Y-99963D01*
X93538Y-99901D01*
X93445Y-99836D01*
X93355Y-99768D01*
X93267Y-99697D01*
X93181Y-99622D01*
X93098Y-99545D01*
X93018Y-99465D01*
X92941Y-99382D01*
X92866Y-99296D01*
X92795Y-99208D01*
X92727Y-99118D01*
X92662Y-99025D01*
X92600Y-98930D01*
X92542Y-98833D01*
X92487Y-98734D01*
X92436Y-98633D01*
X92388Y-98530D01*
X92343Y-98426D01*
X92303Y-98320D01*
X92266Y-98213D01*
X92233Y-98105D01*
X92203Y-97995D01*
X92178Y-97885D01*
X92156Y-97774D01*
X92139Y-97662D01*
X92125Y-97549D01*
X92115Y-97436D01*
X92109Y-97323D01*
X92107Y-97210D01*
X92108Y-97210D02*
X92108Y-93964D01*
X92110Y-93821D01*
X92116Y-93678D01*
X92126Y-93535D01*
X92140Y-93393D01*
X92157Y-93251D01*
X92179Y-93109D01*
X92204Y-92968D01*
X92234Y-92828D01*
X92267Y-92689D01*
X92304Y-92551D01*
X92345Y-92414D01*
X92389Y-92278D01*
X92438Y-92143D01*
X92490Y-92010D01*
X92545Y-91878D01*
X92605Y-91748D01*
X92668Y-91619D01*
X92734Y-91492D01*
X92804Y-91368D01*
X92877Y-91245D01*
X92954Y-91124D01*
X93033Y-91005D01*
X93117Y-90889D01*
X93203Y-90774D01*
X93292Y-90663D01*
X93385Y-90554D01*
X93480Y-90447D01*
X93579Y-90343D01*
X93680Y-90242D01*
X93784Y-90143D01*
X93890Y-90048D01*
X94000Y-89955D01*
X94111Y-89866D01*
X94225Y-89780D01*
X94342Y-89697D01*
X94461Y-89617D01*
X94582Y-89540D01*
X94704Y-89467D01*
X94829Y-89397D01*
X94956Y-89331D01*
X95085Y-89268D01*
X95215Y-89208D01*
X95347Y-89153D01*
X95480Y-89101D01*
X95615Y-89052D01*
X95751Y-89008D01*
X95888Y-88967D01*
X96026Y-88930D01*
X96165Y-88897D01*
X96305Y-88867D01*
X96446Y-88842D01*
X96588Y-88820D01*
X96730Y-88803D01*
X96872Y-88789D01*
X97015Y-88779D01*
X97158Y-88773D01*
X97301Y-88771D01*
M02*
