G90
M71
T1C0.500000
X544332Y-527761
X-748679Y-524970
X1834332Y-527761
X3124332Y-527761
X4414332Y-527761
X5704332Y-527761
X6994332Y-527761
X8284332Y-527761
X9574332Y-527761
X10864332Y-527761
X12154332Y-527761
X13444332Y-527761
X14734332Y-527761
T2C0.800000
X-100000Y2610000
X1190000Y2610000
X2480000Y2610000
X3770000Y2610000
X5060000Y2610000
X6350000Y2610000
X7640000Y2610000
X8930000Y2610000
X10220000Y2610000
X11510000Y2610000
X12800000Y2610000
X14090000Y2610000
M30
